G04 start of page 7 for group -4063 idx -4063 *
G04 Title: (unknown), componentmask *
G04 Creator: pcb 20140316 *
G04 CreationDate: Fri 27 Feb 2015 09:32:21 PM GMT UTC *
G04 For: ndholmes *
G04 Format: Gerber/RS-274X *
G04 PCB-Dimensions (mil): 1900.00 620.00 *
G04 PCB-Coordinate-Origin: lower left *
%MOIN*%
%FSLAX25Y25*%
%LNTOPMASK*%
%ADD45R,0.0572X0.0572*%
%ADD44C,0.0730*%
%ADD43C,0.1500*%
%ADD42C,0.0760*%
%ADD41C,0.2997*%
G54D41*X90000Y32000D03*
G54D42*X57000Y48500D03*
X67000Y43500D03*
X57000Y38500D03*
X67000Y33500D03*
X57000Y28500D03*
X67000Y23500D03*
X57000Y18500D03*
X67000Y13500D03*
G54D43*X32000Y53500D03*
Y8500D03*
G54D44*X118000Y17950D03*
Y46050D03*
G54D41*X171000Y32000D03*
G54D44*X143000Y17950D03*
Y46050D03*
G54D45*X95457Y52893D02*Y52107D01*
X102543Y52893D02*Y52107D01*
X114457Y55893D02*Y55107D01*
X121543Y55893D02*Y55107D01*
X136457Y55893D02*Y55107D01*
X143543Y55893D02*Y55107D01*
X125457Y9393D02*Y8607D01*
X132543Y9393D02*Y8607D01*
X140050Y26900D02*Y25300D01*
X115050Y26900D02*Y25300D01*
X120950Y26900D02*Y25300D01*
X115050Y38700D02*Y37100D01*
X120950Y38700D02*Y37100D01*
X145950Y26900D02*Y25300D01*
X140050Y38700D02*Y37100D01*
X145950Y38700D02*Y37100D01*
X144957Y9393D02*Y8607D01*
X152043Y9393D02*Y8607D01*
X105457Y9393D02*Y8607D01*
X112543Y9393D02*Y8607D01*
M02*
