G04 start of page 3 for group 1 idx 1 *
G04 Title: (unknown), solder *
G04 Creator: pcb 20140316 *
G04 CreationDate: Fri 27 Feb 2015 09:32:21 PM GMT UTC *
G04 For: ndholmes *
G04 Format: Gerber/RS-274X *
G04 PCB-Dimensions (mil): 1900.00 620.00 *
G04 PCB-Coordinate-Origin: lower left *
%MOIN*%
%FSLAX25Y25*%
%LNBOTTOM*%
%ADD34C,0.0630*%
%ADD33C,0.1280*%
%ADD32C,0.0300*%
%ADD31C,0.1285*%
%ADD30C,0.0200*%
%ADD29C,0.0400*%
%ADD28C,0.1440*%
%ADD27C,0.0700*%
%ADD26C,0.2937*%
%ADD25C,0.0100*%
%ADD24C,0.0001*%
G54D24*G36*
X188500Y1500D02*X170976D01*
Y16270D01*
X171000Y16268D01*
X173461Y16461D01*
X175862Y17038D01*
X178142Y17982D01*
X180247Y19272D01*
X182124Y20876D01*
X183728Y22753D01*
X185018Y24858D01*
X185962Y27138D01*
X186539Y29539D01*
X186684Y32000D01*
X186539Y34461D01*
X185962Y36862D01*
X185018Y39142D01*
X183728Y41247D01*
X182124Y43124D01*
X180247Y44728D01*
X178142Y46018D01*
X175862Y46962D01*
X173461Y47539D01*
X171000Y47732D01*
X170976Y47730D01*
Y60500D01*
X188500D01*
Y1500D01*
G37*
G36*
X170976D02*X142994D01*
Y13788D01*
X143000Y13787D01*
X143651Y13838D01*
X144286Y13991D01*
X144890Y14241D01*
X145447Y14582D01*
X145944Y15006D01*
X146368Y15503D01*
X146709Y16060D01*
X146959Y16664D01*
X147112Y17299D01*
X147150Y17950D01*
X147112Y18601D01*
X146959Y19236D01*
X146709Y19840D01*
X146368Y20397D01*
X145944Y20894D01*
X145447Y21318D01*
X144890Y21659D01*
X144286Y21909D01*
X143651Y22062D01*
X143000Y22113D01*
X142994Y22112D01*
Y41888D01*
X143000Y41887D01*
X143651Y41938D01*
X144286Y42091D01*
X144890Y42341D01*
X145447Y42682D01*
X145944Y43106D01*
X146368Y43603D01*
X146709Y44160D01*
X146959Y44764D01*
X147112Y45399D01*
X147150Y46050D01*
X147112Y46701D01*
X146959Y47336D01*
X146709Y47940D01*
X146368Y48497D01*
X145944Y48994D01*
X145447Y49418D01*
X144890Y49759D01*
X144286Y50009D01*
X143651Y50162D01*
X143000Y50213D01*
X142994Y50212D01*
Y60500D01*
X170976D01*
Y47730D01*
X168539Y47539D01*
X166138Y46962D01*
X163858Y46018D01*
X161753Y44728D01*
X159876Y43124D01*
X158272Y41247D01*
X156982Y39142D01*
X156038Y36862D01*
X155461Y34461D01*
X155268Y32000D01*
X155461Y29539D01*
X156038Y27138D01*
X156982Y24858D01*
X158272Y22753D01*
X159876Y20876D01*
X161753Y19272D01*
X163858Y17982D01*
X166138Y17038D01*
X168539Y16461D01*
X170976Y16270D01*
Y1500D01*
G37*
G36*
X142994D02*X117994D01*
Y10000D01*
X127441D01*
X127500Y9995D01*
X127735Y10014D01*
X127735Y10014D01*
X127965Y10069D01*
X128183Y10159D01*
X128384Y10283D01*
X128564Y10436D01*
X128602Y10481D01*
X131519Y13398D01*
X131564Y13436D01*
X131717Y13615D01*
X131717Y13616D01*
X131841Y13817D01*
X131931Y14035D01*
X131986Y14265D01*
X132005Y14500D01*
X132000Y14559D01*
Y23401D01*
X132269Y23565D01*
X132628Y23872D01*
X132935Y24231D01*
X133181Y24634D01*
X133362Y25070D01*
X133472Y25529D01*
X133500Y26000D01*
X133472Y26471D01*
X133362Y26930D01*
X133181Y27366D01*
X132935Y27769D01*
X132628Y28128D01*
X132269Y28435D01*
X131866Y28681D01*
X131430Y28862D01*
X130971Y28972D01*
X130500Y29009D01*
X130029Y28972D01*
X129570Y28862D01*
X129134Y28681D01*
X128731Y28435D01*
X128372Y28128D01*
X128065Y27769D01*
X127819Y27366D01*
X127638Y26930D01*
X127528Y26471D01*
X127491Y26000D01*
X127528Y25529D01*
X127638Y25070D01*
X127819Y24634D01*
X128065Y24231D01*
X128372Y23872D01*
X128731Y23565D01*
X129000Y23401D01*
Y15121D01*
X126879Y13000D01*
X117994D01*
Y13788D01*
X118000Y13787D01*
X118651Y13838D01*
X119286Y13991D01*
X119890Y14241D01*
X120447Y14582D01*
X120944Y15006D01*
X121368Y15503D01*
X121709Y16060D01*
X121959Y16664D01*
X122112Y17299D01*
X122150Y17950D01*
X122112Y18601D01*
X121959Y19236D01*
X121709Y19840D01*
X121368Y20397D01*
X120944Y20894D01*
X120447Y21318D01*
X119890Y21659D01*
X119286Y21909D01*
X118651Y22062D01*
X118000Y22113D01*
X117994Y22112D01*
Y41888D01*
X118000Y41887D01*
X118651Y41938D01*
X119286Y42091D01*
X119890Y42341D01*
X120447Y42682D01*
X120944Y43106D01*
X121368Y43603D01*
X121709Y44160D01*
X121959Y44764D01*
X122112Y45399D01*
X122150Y46050D01*
X122112Y46701D01*
X121959Y47336D01*
X121709Y47940D01*
X121368Y48497D01*
X120944Y48994D01*
X120447Y49418D01*
X119890Y49759D01*
X119286Y50009D01*
X118651Y50162D01*
X118000Y50213D01*
X117994Y50212D01*
Y60500D01*
X142994D01*
Y50212D01*
X142349Y50162D01*
X141714Y50009D01*
X141110Y49759D01*
X140553Y49418D01*
X140056Y48994D01*
X139632Y48497D01*
X139291Y47940D01*
X139041Y47336D01*
X138888Y46701D01*
X138837Y46050D01*
X138888Y45399D01*
X139041Y44764D01*
X139291Y44160D01*
X139632Y43603D01*
X140056Y43106D01*
X140553Y42682D01*
X141110Y42341D01*
X141714Y42091D01*
X142349Y41938D01*
X142994Y41888D01*
Y22112D01*
X142349Y22062D01*
X141714Y21909D01*
X141110Y21659D01*
X140553Y21318D01*
X140056Y20894D01*
X139632Y20397D01*
X139291Y19840D01*
X139041Y19236D01*
X138888Y18601D01*
X138837Y17950D01*
X138888Y17299D01*
X139041Y16664D01*
X139291Y16060D01*
X139632Y15503D01*
X140056Y15006D01*
X140553Y14582D01*
X141110Y14241D01*
X141714Y13991D01*
X142349Y13838D01*
X142994Y13788D01*
Y1500D01*
G37*
G36*
X117994Y13000D02*X92993D01*
Y16589D01*
X94862Y17038D01*
X97142Y17982D01*
X99247Y19272D01*
X101124Y20876D01*
X102728Y22753D01*
X104018Y24858D01*
X104962Y27138D01*
X105539Y29539D01*
X105684Y32000D01*
X105539Y34461D01*
X104962Y36862D01*
X104018Y39142D01*
X102728Y41247D01*
X101124Y43124D01*
X99247Y44728D01*
X97142Y46018D01*
X94862Y46962D01*
X92993Y47411D01*
Y48500D01*
X106901D01*
X107065Y48231D01*
X107372Y47872D01*
X107731Y47565D01*
X108134Y47319D01*
X108570Y47138D01*
X109029Y47028D01*
X109500Y46991D01*
X109971Y47028D01*
X110430Y47138D01*
X110866Y47319D01*
X111269Y47565D01*
X111628Y47872D01*
X111935Y48231D01*
X112181Y48634D01*
X112362Y49070D01*
X112472Y49529D01*
X112500Y50000D01*
X112472Y50471D01*
X112362Y50930D01*
X112181Y51366D01*
X111935Y51769D01*
X111628Y52128D01*
X111269Y52435D01*
X110866Y52681D01*
X110430Y52862D01*
X109971Y52972D01*
X109500Y53009D01*
X109029Y52972D01*
X108570Y52862D01*
X108134Y52681D01*
X107731Y52435D01*
X107372Y52128D01*
X107065Y51769D01*
X106901Y51500D01*
X92993D01*
Y60500D01*
X117994D01*
Y50212D01*
X117349Y50162D01*
X116714Y50009D01*
X116110Y49759D01*
X115553Y49418D01*
X115056Y48994D01*
X114632Y48497D01*
X114291Y47940D01*
X114041Y47336D01*
X113888Y46701D01*
X113837Y46050D01*
X113888Y45399D01*
X114041Y44764D01*
X114291Y44160D01*
X114632Y43603D01*
X115056Y43106D01*
X115553Y42682D01*
X116110Y42341D01*
X116714Y42091D01*
X117349Y41938D01*
X117994Y41888D01*
Y22112D01*
X117349Y22062D01*
X116714Y21909D01*
X116110Y21659D01*
X115553Y21318D01*
X115056Y20894D01*
X114632Y20397D01*
X114291Y19840D01*
X114041Y19236D01*
X113888Y18601D01*
X113837Y17950D01*
X113888Y17299D01*
X114041Y16664D01*
X114291Y16060D01*
X114632Y15503D01*
X115056Y15006D01*
X115553Y14582D01*
X116110Y14241D01*
X116714Y13991D01*
X117349Y13838D01*
X117994Y13788D01*
Y13000D01*
G37*
G36*
Y1500D02*X92993D01*
Y10000D01*
X117994D01*
Y1500D01*
G37*
G36*
X92993Y13000D02*X78121D01*
X74000Y17121D01*
Y27941D01*
X74005Y28000D01*
X73986Y28235D01*
X73986Y28235D01*
X73931Y28465D01*
X73841Y28683D01*
X73717Y28884D01*
X73564Y29064D01*
X73519Y29102D01*
X71065Y31556D01*
X71293Y32105D01*
X71458Y32794D01*
X71500Y33500D01*
X71458Y34206D01*
X71293Y34895D01*
X71022Y35549D01*
X70652Y36153D01*
X70192Y36692D01*
X69653Y37152D01*
X69049Y37522D01*
X68395Y37793D01*
X67706Y37958D01*
X67000Y38014D01*
X66294Y37958D01*
X65605Y37793D01*
X64951Y37522D01*
X64347Y37152D01*
X63808Y36692D01*
X63500Y36331D01*
Y40669D01*
X63808Y40308D01*
X64347Y39848D01*
X64951Y39478D01*
X65605Y39207D01*
X66294Y39042D01*
X67000Y38986D01*
X67706Y39042D01*
X68395Y39207D01*
X69049Y39478D01*
X69653Y39848D01*
X70192Y40308D01*
X70652Y40847D01*
X71022Y41451D01*
X71293Y42105D01*
X71458Y42794D01*
X71500Y43500D01*
X71458Y44206D01*
X71293Y44895D01*
X71022Y45549D01*
X70652Y46153D01*
X70192Y46692D01*
X69653Y47152D01*
X69049Y47522D01*
X68395Y47793D01*
X67706Y47958D01*
X67000Y48014D01*
X66294Y47958D01*
X65605Y47793D01*
X64951Y47522D01*
X64347Y47152D01*
X63842Y46721D01*
X65621Y48500D01*
X92993D01*
Y47411D01*
X92461Y47539D01*
X90000Y47732D01*
X87539Y47539D01*
X85138Y46962D01*
X82858Y46018D01*
X80753Y44728D01*
X78876Y43124D01*
X77272Y41247D01*
X75982Y39142D01*
X75038Y36862D01*
X74461Y34461D01*
X74268Y32000D01*
X74461Y29539D01*
X75038Y27138D01*
X75982Y24858D01*
X77272Y22753D01*
X78876Y20876D01*
X80753Y19272D01*
X82858Y17982D01*
X85138Y17038D01*
X87539Y16461D01*
X90000Y16268D01*
X92461Y16461D01*
X92993Y16589D01*
Y13000D01*
G37*
G36*
X56993Y33987D02*X57000Y33986D01*
X57706Y34042D01*
X58395Y34207D01*
X59049Y34478D01*
X59653Y34848D01*
X60192Y35308D01*
X60500Y35669D01*
Y34121D01*
X58944Y32565D01*
X58395Y32793D01*
X57706Y32958D01*
X57000Y33014D01*
X56993Y33013D01*
Y33987D01*
G37*
G36*
Y43987D02*X57000Y43986D01*
X57706Y44042D01*
X58395Y44207D01*
X59049Y44478D01*
X59653Y44848D01*
X60192Y45308D01*
X60500Y45669D01*
Y41331D01*
X60192Y41692D01*
X59653Y42152D01*
X59049Y42522D01*
X58395Y42793D01*
X57706Y42958D01*
X57000Y43014D01*
X56993Y43013D01*
Y43987D01*
G37*
G36*
Y60500D02*X92993D01*
Y51500D01*
X65059D01*
X65000Y51505D01*
X64765Y51486D01*
X64535Y51431D01*
X64317Y51341D01*
X64116Y51217D01*
X64115Y51217D01*
X63936Y51064D01*
X63898Y51019D01*
X61493Y48615D01*
X61458Y49206D01*
X61293Y49895D01*
X61022Y50549D01*
X60652Y51153D01*
X60192Y51692D01*
X59653Y52152D01*
X59049Y52522D01*
X58395Y52793D01*
X57706Y52958D01*
X57000Y53014D01*
X56993Y53013D01*
Y60500D01*
G37*
G36*
X66993Y28987D02*X67000Y28986D01*
X67706Y29042D01*
X68395Y29207D01*
X68944Y29435D01*
X71000Y27379D01*
Y25585D01*
X70652Y26153D01*
X70192Y26692D01*
X69653Y27152D01*
X69049Y27522D01*
X68395Y27793D01*
X67706Y27958D01*
X67000Y28014D01*
X66993Y28013D01*
Y28987D01*
G37*
G36*
X92993Y1500D02*X66993D01*
Y8987D01*
X67000Y8986D01*
X67706Y9042D01*
X68395Y9207D01*
X69049Y9478D01*
X69653Y9848D01*
X70192Y10308D01*
X70652Y10847D01*
X71022Y11451D01*
X71293Y12105D01*
X71458Y12794D01*
X71500Y13500D01*
X71458Y14206D01*
X71293Y14895D01*
X71022Y15549D01*
X70652Y16153D01*
X70192Y16692D01*
X69653Y17152D01*
X69049Y17522D01*
X68395Y17793D01*
X67706Y17958D01*
X67000Y18014D01*
X66993Y18013D01*
Y18987D01*
X67000Y18986D01*
X67706Y19042D01*
X68395Y19207D01*
X69049Y19478D01*
X69653Y19848D01*
X70192Y20308D01*
X70652Y20847D01*
X71000Y21415D01*
Y16559D01*
X70995Y16500D01*
X71014Y16265D01*
X71069Y16035D01*
X71159Y15817D01*
X71283Y15616D01*
X71436Y15436D01*
X71481Y15398D01*
X76398Y10481D01*
X76436Y10436D01*
X76616Y10283D01*
X76817Y10159D01*
X77035Y10069D01*
X77265Y10014D01*
X77500Y9995D01*
X77559Y10000D01*
X92993D01*
Y1500D01*
G37*
G36*
X66993D02*X56993D01*
Y13987D01*
X57000Y13986D01*
X57706Y14042D01*
X58395Y14207D01*
X59049Y14478D01*
X59653Y14848D01*
X60192Y15308D01*
X60652Y15847D01*
X61022Y16451D01*
X61293Y17105D01*
X61458Y17794D01*
X61500Y18500D01*
X61458Y19206D01*
X61293Y19895D01*
X61022Y20549D01*
X60652Y21153D01*
X60192Y21692D01*
X59653Y22152D01*
X59049Y22522D01*
X58395Y22793D01*
X57706Y22958D01*
X57000Y23014D01*
X56993Y23013D01*
Y23987D01*
X57000Y23986D01*
X57706Y24042D01*
X58395Y24207D01*
X59049Y24478D01*
X59653Y24848D01*
X60192Y25308D01*
X60652Y25847D01*
X61022Y26451D01*
X61293Y27105D01*
X61458Y27794D01*
X61500Y28500D01*
X61458Y29206D01*
X61293Y29895D01*
X61065Y30444D01*
X62713Y32091D01*
X62978Y31451D01*
X63348Y30847D01*
X63808Y30308D01*
X64347Y29848D01*
X64951Y29478D01*
X65605Y29207D01*
X66294Y29042D01*
X66993Y28987D01*
Y28013D01*
X66294Y27958D01*
X65605Y27793D01*
X64951Y27522D01*
X64347Y27152D01*
X63808Y26692D01*
X63348Y26153D01*
X62978Y25549D01*
X62707Y24895D01*
X62542Y24206D01*
X62486Y23500D01*
X62542Y22794D01*
X62707Y22105D01*
X62978Y21451D01*
X63348Y20847D01*
X63808Y20308D01*
X64347Y19848D01*
X64951Y19478D01*
X65605Y19207D01*
X66294Y19042D01*
X66993Y18987D01*
Y18013D01*
X66294Y17958D01*
X65605Y17793D01*
X64951Y17522D01*
X64347Y17152D01*
X63808Y16692D01*
X63348Y16153D01*
X62978Y15549D01*
X62707Y14895D01*
X62542Y14206D01*
X62486Y13500D01*
X62542Y12794D01*
X62707Y12105D01*
X62978Y11451D01*
X63348Y10847D01*
X63808Y10308D01*
X64347Y9848D01*
X64951Y9478D01*
X65605Y9207D01*
X66294Y9042D01*
X66993Y8987D01*
Y1500D01*
G37*
G36*
X56993D02*X36271D01*
X36835Y1846D01*
X37816Y2684D01*
X38654Y3665D01*
X39329Y4766D01*
X39823Y5958D01*
X40124Y7213D01*
X40200Y8500D01*
X40124Y9787D01*
X39823Y11042D01*
X39329Y12234D01*
X38654Y13335D01*
X37816Y14316D01*
X36835Y15154D01*
X35734Y15829D01*
X34542Y16323D01*
X33287Y16624D01*
X32000Y16725D01*
X30713Y16624D01*
X29458Y16323D01*
X28266Y15829D01*
X27165Y15154D01*
X26184Y14316D01*
X25346Y13335D01*
X24671Y12234D01*
X24177Y11042D01*
X23876Y9787D01*
X23775Y8500D01*
X23876Y7213D01*
X24177Y5958D01*
X24671Y4766D01*
X25346Y3665D01*
X26184Y2684D01*
X27165Y1846D01*
X27729Y1500D01*
X1500D01*
Y60500D01*
X27729D01*
X27165Y60154D01*
X26184Y59316D01*
X25346Y58335D01*
X24671Y57234D01*
X24177Y56042D01*
X23876Y54787D01*
X23775Y53500D01*
X23876Y52213D01*
X24177Y50958D01*
X24671Y49766D01*
X25346Y48665D01*
X26184Y47684D01*
X27165Y46846D01*
X28266Y46171D01*
X29458Y45677D01*
X30713Y45376D01*
X32000Y45275D01*
X33287Y45376D01*
X34542Y45677D01*
X35734Y46171D01*
X36835Y46846D01*
X37816Y47684D01*
X38654Y48665D01*
X39329Y49766D01*
X39823Y50958D01*
X40124Y52213D01*
X40200Y53500D01*
X40124Y54787D01*
X39823Y56042D01*
X39329Y57234D01*
X38654Y58335D01*
X37816Y59316D01*
X36835Y60154D01*
X36271Y60500D01*
X56993D01*
Y53013D01*
X56294Y52958D01*
X55605Y52793D01*
X54951Y52522D01*
X54347Y52152D01*
X53808Y51692D01*
X53348Y51153D01*
X52978Y50549D01*
X52707Y49895D01*
X52542Y49206D01*
X52486Y48500D01*
X52542Y47794D01*
X52707Y47105D01*
X52978Y46451D01*
X53348Y45847D01*
X53808Y45308D01*
X54347Y44848D01*
X54951Y44478D01*
X55605Y44207D01*
X56294Y44042D01*
X56993Y43987D01*
Y43013D01*
X56294Y42958D01*
X55605Y42793D01*
X54951Y42522D01*
X54347Y42152D01*
X53808Y41692D01*
X53348Y41153D01*
X52978Y40549D01*
X52707Y39895D01*
X52542Y39206D01*
X52486Y38500D01*
X52542Y37794D01*
X52707Y37105D01*
X52978Y36451D01*
X53348Y35847D01*
X53808Y35308D01*
X54347Y34848D01*
X54951Y34478D01*
X55605Y34207D01*
X56294Y34042D01*
X56993Y33987D01*
Y33013D01*
X56294Y32958D01*
X55605Y32793D01*
X54951Y32522D01*
X54347Y32152D01*
X53808Y31692D01*
X53348Y31153D01*
X52978Y30549D01*
X52707Y29895D01*
X52542Y29206D01*
X52486Y28500D01*
X52542Y27794D01*
X52707Y27105D01*
X52978Y26451D01*
X53348Y25847D01*
X53808Y25308D01*
X54347Y24848D01*
X54951Y24478D01*
X55605Y24207D01*
X56294Y24042D01*
X56993Y23987D01*
Y23013D01*
X56294Y22958D01*
X55605Y22793D01*
X54951Y22522D01*
X54347Y22152D01*
X53808Y21692D01*
X53348Y21153D01*
X52978Y20549D01*
X52707Y19895D01*
X52542Y19206D01*
X52486Y18500D01*
X52542Y17794D01*
X52707Y17105D01*
X52978Y16451D01*
X53348Y15847D01*
X53808Y15308D01*
X54347Y14848D01*
X54951Y14478D01*
X55605Y14207D01*
X56294Y14042D01*
X56993Y13987D01*
Y1500D01*
G37*
G54D25*X130500Y26000D02*Y14500D01*
X127500Y11500D01*
X77500D01*
X109500Y50000D02*X65000D01*
X62000Y47000D01*
Y33500D01*
X57000Y28500D01*
X77500Y11500D02*X72500Y16500D01*
Y28000D01*
X67000Y33500D01*
G54D26*X90000Y32000D03*
G54D27*X57000Y48500D03*
X67000Y43500D03*
X57000Y38500D03*
X67000Y33500D03*
X57000Y28500D03*
X67000Y23500D03*
X57000Y18500D03*
X67000Y13500D03*
G54D28*X32000Y53500D03*
Y8500D03*
G54D26*X171000Y32000D03*
G54D29*X109500Y50000D03*
X130500Y26000D03*
G54D30*G54D31*G54D32*G54D33*G54D34*G54D31*G54D34*M02*
