G04 start of page 9 for group -4079 idx -4079 *
G04 Title: (unknown), topsilk *
G04 Creator: pcb 20140316 *
G04 CreationDate: Fri 27 Feb 2015 09:32:21 PM GMT UTC *
G04 For: ndholmes *
G04 Format: Gerber/RS-274X *
G04 PCB-Dimensions (mil): 1900.00 620.00 *
G04 PCB-Coordinate-Origin: lower left *
%MOIN*%
%FSLAX25Y25*%
%LNTOPSILK*%
%ADD51C,0.0200*%
%ADD50C,0.0100*%
G54D50*X500Y500D02*X189500D01*
Y61500D01*
X500D01*
Y500D01*
X127000Y46500D02*Y17500D01*
X109000Y46500D02*Y17500D01*
Y46500D02*X113500D01*
X122500D02*X127000D01*
X109000Y17500D02*X113500D01*
X122500D02*X127000D01*
X109000Y22000D02*X113500Y17500D01*
X128607Y11755D02*X129393D01*
X128607Y6245D02*X129393D01*
X108607Y11755D02*X109393D01*
X108607Y6245D02*X109393D01*
X98607Y55255D02*X99393D01*
X98607Y49745D02*X99393D01*
X152000Y46500D02*Y17500D01*
X134000Y46500D02*Y17500D01*
Y46500D02*X138500D01*
X147500D02*X152000D01*
X134000Y17500D02*X138500D01*
X147500D02*X152000D01*
X134000Y22000D02*X138500Y17500D01*
X148107Y11755D02*X148893D01*
X148107Y6245D02*X148893D01*
X117607Y58255D02*X118393D01*
X117607Y52745D02*X118393D01*
X139607Y58255D02*X140393D01*
X139607Y52745D02*X140393D01*
G54D51*X1000Y1000D02*X72300D01*
X1000Y61000D02*X72300D01*
Y1000D01*
X1000Y61000D02*X980Y1000D01*
G54D50*X101500Y19000D02*Y15000D01*
X103000Y19000D02*X103500Y18500D01*
Y15500D01*
X103000Y15000D02*X103500Y15500D01*
X101000Y15000D02*X103000D01*
X101000Y19000D02*X103000D01*
X105200Y15000D02*X106200D01*
X105700Y19000D02*Y15000D01*
X104700Y18000D02*X105700Y19000D01*
X106000Y4730D02*X107540D01*
X107925Y4345D01*
Y3575D01*
X107540Y3190D02*X107925Y3575D01*
X106385Y3190D02*X107540D01*
X106385Y4730D02*Y1650D01*
Y3190D02*X107925Y1650D01*
X108849Y4730D02*X110389D01*
X108849D02*Y3190D01*
X109234Y3575D01*
X110004D01*
X110389Y3190D01*
Y2035D01*
X110004Y1650D02*X110389Y2035D01*
X109234Y1650D02*X110004D01*
X108849Y2035D02*X109234Y1650D01*
X85500Y54230D02*X87040D01*
X87425Y53845D01*
Y53075D01*
X87040Y52690D02*X87425Y53075D01*
X85885Y52690D02*X87040D01*
X85885Y54230D02*Y51150D01*
Y52690D02*X87425Y51150D01*
X88734D02*X89504D01*
X89119Y54230D02*Y51150D01*
X88349Y53460D02*X89119Y54230D01*
X126500Y4730D02*X128040D01*
X128425Y4345D01*
Y3575D01*
X128040Y3190D02*X128425Y3575D01*
X126885Y3190D02*X128040D01*
X126885Y4730D02*Y1650D01*
Y3190D02*X128425Y1650D01*
X129349Y3190D02*X130889Y4730D01*
X129349Y3190D02*X131274D01*
X130889Y4730D02*Y1650D01*
X155500Y19000D02*Y15000D01*
X157000Y19000D02*X157500Y18500D01*
Y15500D01*
X157000Y15000D02*X157500Y15500D01*
X155000Y15000D02*X157000D01*
X155000Y19000D02*X157000D01*
X158700Y18500D02*X159200Y19000D01*
X160700D01*
X161200Y18500D01*
Y17500D01*
X158700Y15000D02*X161200Y17500D01*
X158700Y15000D02*X161200D01*
X146500Y4730D02*X148040D01*
X148425Y4345D01*
Y3575D01*
X148040Y3190D02*X148425Y3575D01*
X146885Y3190D02*X148040D01*
X146885Y4730D02*Y1650D01*
Y3190D02*X148425Y1650D01*
X150504Y4730D02*X150889Y4345D01*
X149734Y4730D02*X150504D01*
X149349Y4345D02*X149734Y4730D01*
X149349Y4345D02*Y2035D01*
X149734Y1650D01*
X150504Y3190D02*X150889Y2805D01*
X149349Y3190D02*X150504D01*
X149734Y1650D02*X150504D01*
X150889Y2035D01*
Y2805D02*Y2035D01*
X126000Y56730D02*X127540D01*
X127925Y56345D01*
Y55575D01*
X127540Y55190D02*X127925Y55575D01*
X126385Y55190D02*X127540D01*
X126385Y56730D02*Y53650D01*
Y55190D02*X127925Y53650D01*
X128849Y56345D02*X129234Y56730D01*
X130389D01*
X130774Y56345D01*
Y55575D01*
X128849Y53650D02*X130774Y55575D01*
X128849Y53650D02*X130774D01*
X148500Y57230D02*X150040D01*
X150425Y56845D01*
Y56075D01*
X150040Y55690D02*X150425Y56075D01*
X148885Y55690D02*X150040D01*
X148885Y57230D02*Y54150D01*
Y55690D02*X150425Y54150D01*
X151349Y56845D02*X151734Y57230D01*
X152504D01*
X152889Y56845D01*
Y54535D01*
X152504Y54150D02*X152889Y54535D01*
X151734Y54150D02*X152504D01*
X151349Y54535D02*X151734Y54150D01*
Y55690D02*X152889D01*
X79157Y13500D02*X80657D01*
Y10000D01*
X80157Y9500D02*X80657Y10000D01*
X79657Y9500D02*X80157D01*
X79157Y10000D02*X79657Y9500D01*
X82357D02*X83357D01*
X82857Y13500D02*Y9500D01*
X81857Y12500D02*X82857Y13500D01*
M02*
