G04 start of page 13 for group -3984 idx -3984 *
G04 Title: (unknown), fab *
G04 Creator: pcb 20140316 *
G04 CreationDate: Fri 27 Feb 2015 09:32:21 PM GMT UTC *
G04 For: ndholmes *
G04 Format: Gerber/RS-274X *
G04 PCB-Dimensions (mil): 1900.00 620.00 *
G04 PCB-Coordinate-Origin: lower left *
%MOIN*%
%FSLAX25Y25*%
%LNFAB*%
%ADD57C,0.0100*%
%ADD56C,0.0060*%
%ADD55R,0.0080X0.0080*%
G54D55*X169400Y33600D02*X172600D01*
X169400D02*Y30400D01*
X172600D01*
Y33600D02*Y30400D01*
X88400Y33600D02*X91600D01*
X88400D02*Y30400D01*
X91600D01*
Y33600D02*Y30400D01*
X13400Y74850D02*X16600D01*
X13400D02*Y71650D01*
X16600D01*
Y74850D02*Y71650D01*
G54D56*X135000Y75500D02*Y74750D01*
X136500Y73250D01*
X138000Y74750D01*
Y75500D02*Y74750D01*
X136500Y73250D02*Y69500D01*
X139800Y72500D02*X142050D01*
X139800Y69500D02*X142800D01*
X139800Y75500D02*Y69500D01*
Y75500D02*X142800D01*
X147600D02*X148350Y74750D01*
X145350Y75500D02*X147600D01*
X144600Y74750D02*X145350Y75500D01*
X144600Y74750D02*Y73250D01*
X145350Y72500D01*
X147600D01*
X148350Y71750D01*
Y70250D01*
X147600Y69500D02*X148350Y70250D01*
X145350Y69500D02*X147600D01*
X144600Y70250D02*X145350Y69500D01*
X98000Y74750D02*X98750Y75500D01*
X101000D01*
X101750Y74750D01*
Y73250D01*
X98000Y69500D02*X101750Y73250D01*
X98000Y69500D02*X101750D01*
X45000Y70250D02*X45750Y69500D01*
X45000Y74750D02*Y70250D01*
Y74750D02*X45750Y75500D01*
X47250D01*
X48000Y74750D01*
Y70250D01*
X47250Y69500D02*X48000Y70250D01*
X45750Y69500D02*X47250D01*
X45000Y71000D02*X48000Y74000D01*
X49800Y69500D02*X50550D01*
X53100D02*X54600D01*
X53850Y75500D02*Y69500D01*
X52350Y74000D02*X53850Y75500D01*
X56400Y74750D02*X57150Y75500D01*
X59400D01*
X60150Y74750D01*
Y73250D01*
X56400Y69500D02*X60150Y73250D01*
X56400Y69500D02*X60150D01*
X61950D02*X64950Y72500D01*
Y74750D02*Y72500D01*
X64200Y75500D02*X64950Y74750D01*
X62700Y75500D02*X64200D01*
X61950Y74750D02*X62700Y75500D01*
X61950Y74750D02*Y73250D01*
X62700Y72500D01*
X64950D01*
X31200Y53500D02*G75*G03X32800Y53500I800J0D01*G01*
G75*G03X31200Y53500I-800J0D01*G01*
Y8500D02*G75*G03X32800Y8500I800J0D01*G01*
G75*G03X31200Y8500I-800J0D01*G01*
X14200Y88250D02*G75*G03X15800Y88250I800J0D01*G01*
G75*G03X14200Y88250I-800J0D01*G01*
X135000Y90500D02*Y89750D01*
X136500Y88250D01*
X138000Y89750D01*
Y90500D02*Y89750D01*
X136500Y88250D02*Y84500D01*
X139800Y87500D02*X142050D01*
X139800Y84500D02*X142800D01*
X139800Y90500D02*Y84500D01*
Y90500D02*X142800D01*
X147600D02*X148350Y89750D01*
X145350Y90500D02*X147600D01*
X144600Y89750D02*X145350Y90500D01*
X144600Y89750D02*Y88250D01*
X145350Y87500D01*
X147600D01*
X148350Y86750D01*
Y85250D01*
X147600Y84500D02*X148350Y85250D01*
X145350Y84500D02*X147600D01*
X144600Y85250D02*X145350Y84500D01*
X98000Y89750D02*X98750Y90500D01*
X101000D01*
X101750Y89750D01*
Y88250D01*
X98000Y84500D02*X101750Y88250D01*
X98000Y84500D02*X101750D01*
X45000Y85250D02*X45750Y84500D01*
X45000Y89750D02*Y85250D01*
Y89750D02*X45750Y90500D01*
X47250D01*
X48000Y89750D01*
Y85250D01*
X47250Y84500D02*X48000Y85250D01*
X45750Y84500D02*X47250D01*
X45000Y86000D02*X48000Y89000D01*
X49800Y84500D02*X50550D01*
X53100D02*X54600D01*
X53850Y90500D02*Y84500D01*
X52350Y89000D02*X53850Y90500D01*
X56400Y89750D02*X57150Y90500D01*
X59400D01*
X60150Y89750D01*
Y88250D01*
X56400Y84500D02*X60150Y88250D01*
X56400Y84500D02*X60150D01*
X61950Y85250D02*X62700Y84500D01*
X61950Y86750D02*Y85250D01*
Y86750D02*X62700Y87500D01*
X64200D01*
X64950Y86750D01*
Y85250D01*
X64200Y84500D02*X64950Y85250D01*
X62700Y84500D02*X64200D01*
X61950Y88250D02*X62700Y87500D01*
X61950Y89750D02*Y88250D01*
Y89750D02*X62700Y90500D01*
X64200D01*
X64950Y89750D01*
Y88250D01*
X64200Y87500D02*X64950Y88250D01*
X116800Y19150D02*X119200Y16750D01*
X116800D02*X119200Y19150D01*
X116800Y47250D02*X119200Y44850D01*
X116800D02*X119200Y47250D01*
X141800Y19150D02*X144200Y16750D01*
X141800D02*X144200Y19150D01*
X141800Y47250D02*X144200Y44850D01*
X141800D02*X144200Y47250D01*
X13800Y104450D02*X16200Y102050D01*
X13800D02*X16200Y104450D01*
X140000Y105500D02*Y99500D01*
Y105500D02*Y104750D01*
X143750Y101000D01*
Y105500D02*Y99500D01*
X145550Y104750D02*Y100250D01*
Y104750D02*X146300Y105500D01*
X147800D01*
X148550Y104750D01*
Y100250D01*
X147800Y99500D02*X148550Y100250D01*
X146300Y99500D02*X147800D01*
X145550Y100250D02*X146300Y99500D01*
X98000Y102500D02*X101000Y105500D01*
X98000Y102500D02*X101750D01*
X101000Y105500D02*Y99500D01*
X45000Y100250D02*X45750Y99500D01*
X45000Y104750D02*Y100250D01*
Y104750D02*X45750Y105500D01*
X47250D01*
X48000Y104750D01*
Y100250D01*
X47250Y99500D02*X48000Y100250D01*
X45750Y99500D02*X47250D01*
X45000Y101000D02*X48000Y104000D01*
X49800Y99500D02*X50550D01*
X52350Y100250D02*X53100Y99500D01*
X52350Y104750D02*Y100250D01*
Y104750D02*X53100Y105500D01*
X54600D01*
X55350Y104750D01*
Y100250D01*
X54600Y99500D02*X55350Y100250D01*
X53100Y99500D02*X54600D01*
X52350Y101000D02*X55350Y104000D01*
X59400Y105500D02*X60150Y104750D01*
X57900Y105500D02*X59400D01*
X57150Y104750D02*X57900Y105500D01*
X57150Y104750D02*Y100250D01*
X57900Y99500D01*
X59400Y102500D02*X60150Y101750D01*
X57150Y102500D02*X59400D01*
X57900Y99500D02*X59400D01*
X60150Y100250D01*
Y101750D02*Y100250D01*
X61950Y104750D02*X62700Y105500D01*
X64200D01*
X64950Y104750D01*
Y100250D01*
X64200Y99500D02*X64950Y100250D01*
X62700Y99500D02*X64200D01*
X61950Y100250D02*X62700Y99500D01*
Y102500D02*X64950D01*
X57000Y50100D02*Y46900D01*
X55400Y48500D02*X58600D01*
X67000Y45100D02*Y41900D01*
X65400Y43500D02*X68600D01*
X57000Y40100D02*Y36900D01*
X55400Y38500D02*X58600D01*
X67000Y35100D02*Y31900D01*
X65400Y33500D02*X68600D01*
X57000Y30100D02*Y26900D01*
X55400Y28500D02*X58600D01*
X67000Y25100D02*Y21900D01*
X65400Y23500D02*X68600D01*
X57000Y20100D02*Y16900D01*
X55400Y18500D02*X58600D01*
X67000Y15100D02*Y11900D01*
X65400Y13500D02*X68600D01*
X15000Y119850D02*Y116650D01*
X13400Y118250D02*X16600D01*
X135000Y120500D02*Y119750D01*
X136500Y118250D01*
X138000Y119750D01*
Y120500D02*Y119750D01*
X136500Y118250D02*Y114500D01*
X139800Y117500D02*X142050D01*
X139800Y114500D02*X142800D01*
X139800Y120500D02*Y114500D01*
Y120500D02*X142800D01*
X147600D02*X148350Y119750D01*
X145350Y120500D02*X147600D01*
X144600Y119750D02*X145350Y120500D01*
X144600Y119750D02*Y118250D01*
X145350Y117500D01*
X147600D01*
X148350Y116750D01*
Y115250D01*
X147600Y114500D02*X148350Y115250D01*
X145350Y114500D02*X147600D01*
X144600Y115250D02*X145350Y114500D01*
X98000Y115250D02*X98750Y114500D01*
X98000Y116750D02*Y115250D01*
Y116750D02*X98750Y117500D01*
X100250D01*
X101000Y116750D01*
Y115250D01*
X100250Y114500D02*X101000Y115250D01*
X98750Y114500D02*X100250D01*
X98000Y118250D02*X98750Y117500D01*
X98000Y119750D02*Y118250D01*
Y119750D02*X98750Y120500D01*
X100250D01*
X101000Y119750D01*
Y118250D01*
X100250Y117500D02*X101000Y118250D01*
X45000Y115250D02*X45750Y114500D01*
X45000Y119750D02*Y115250D01*
Y119750D02*X45750Y120500D01*
X47250D01*
X48000Y119750D01*
Y115250D01*
X47250Y114500D02*X48000Y115250D01*
X45750Y114500D02*X47250D01*
X45000Y116000D02*X48000Y119000D01*
X49800Y114500D02*X50550D01*
X52350Y115250D02*X53100Y114500D01*
X52350Y119750D02*Y115250D01*
Y119750D02*X53100Y120500D01*
X54600D01*
X55350Y119750D01*
Y115250D01*
X54600Y114500D02*X55350Y115250D01*
X53100Y114500D02*X54600D01*
X52350Y116000D02*X55350Y119000D01*
X57150Y119750D02*X57900Y120500D01*
X59400D01*
X60150Y119750D01*
Y115250D01*
X59400Y114500D02*X60150Y115250D01*
X57900Y114500D02*X59400D01*
X57150Y115250D02*X57900Y114500D01*
Y117500D02*X60150D01*
X61950Y115250D02*X62700Y114500D01*
X61950Y119750D02*Y115250D01*
Y119750D02*X62700Y120500D01*
X64200D01*
X64950Y119750D01*
Y115250D01*
X64200Y114500D02*X64950Y115250D01*
X62700Y114500D02*X64200D01*
X61950Y116000D02*X64950Y119000D01*
X109500Y50000D02*Y48400D01*
Y50000D02*X110887Y50800D01*
X109500Y50000D02*X108113Y50800D01*
X130500Y26000D02*Y24400D01*
Y26000D02*X131887Y26800D01*
X130500Y26000D02*X129113Y26800D01*
X15000Y133250D02*Y131650D01*
Y133250D02*X16387Y134050D01*
X15000Y133250D02*X13613Y134050D01*
X135000Y135500D02*Y134750D01*
X136500Y133250D01*
X138000Y134750D01*
Y135500D02*Y134750D01*
X136500Y133250D02*Y129500D01*
X139800Y132500D02*X142050D01*
X139800Y129500D02*X142800D01*
X139800Y135500D02*Y129500D01*
Y135500D02*X142800D01*
X147600D02*X148350Y134750D01*
X145350Y135500D02*X147600D01*
X144600Y134750D02*X145350Y135500D01*
X144600Y134750D02*Y133250D01*
X145350Y132500D01*
X147600D01*
X148350Y131750D01*
Y130250D01*
X147600Y129500D02*X148350Y130250D01*
X145350Y129500D02*X147600D01*
X144600Y130250D02*X145350Y129500D01*
X98000Y134750D02*X98750Y135500D01*
X101000D01*
X101750Y134750D01*
Y133250D01*
X98000Y129500D02*X101750Y133250D01*
X98000Y129500D02*X101750D01*
X45000Y130250D02*X45750Y129500D01*
X45000Y134750D02*Y130250D01*
Y134750D02*X45750Y135500D01*
X47250D01*
X48000Y134750D01*
Y130250D01*
X47250Y129500D02*X48000Y130250D01*
X45750Y129500D02*X47250D01*
X45000Y131000D02*X48000Y134000D01*
X49800Y129500D02*X50550D01*
X52350Y130250D02*X53100Y129500D01*
X52350Y134750D02*Y130250D01*
Y134750D02*X53100Y135500D01*
X54600D01*
X55350Y134750D01*
Y130250D01*
X54600Y129500D02*X55350Y130250D01*
X53100Y129500D02*X54600D01*
X52350Y131000D02*X55350Y134000D01*
X57150Y134750D02*X57900Y135500D01*
X60150D01*
X60900Y134750D01*
Y133250D01*
X57150Y129500D02*X60900Y133250D01*
X57150Y129500D02*X60900D01*
X62700Y130250D02*X63450Y129500D01*
X62700Y134750D02*Y130250D01*
Y134750D02*X63450Y135500D01*
X64950D01*
X65700Y134750D01*
Y130250D01*
X64950Y129500D02*X65700Y130250D01*
X63450Y129500D02*X64950D01*
X62700Y131000D02*X65700Y134000D01*
X3000Y150500D02*X3750Y149750D01*
X750Y150500D02*X3000D01*
X0Y149750D02*X750Y150500D01*
X0Y149750D02*Y148250D01*
X750Y147500D01*
X3000D01*
X3750Y146750D01*
Y145250D01*
X3000Y144500D02*X3750Y145250D01*
X750Y144500D02*X3000D01*
X0Y145250D02*X750Y144500D01*
X5550Y147500D02*Y145250D01*
X6300Y144500D01*
X8550Y147500D02*Y143000D01*
X7800Y142250D02*X8550Y143000D01*
X6300Y142250D02*X7800D01*
X5550Y143000D02*X6300Y142250D01*
Y144500D02*X7800D01*
X8550Y145250D01*
X11100Y146750D02*Y144500D01*
Y146750D02*X11850Y147500D01*
X12600D01*
X13350Y146750D01*
Y144500D01*
Y146750D02*X14100Y147500D01*
X14850D01*
X15600Y146750D01*
Y144500D01*
X10350Y147500D02*X11100Y146750D01*
X17400Y150500D02*Y144500D01*
Y145250D02*X18150Y144500D01*
X19650D01*
X20400Y145250D01*
Y146750D02*Y145250D01*
X19650Y147500D02*X20400Y146750D01*
X18150Y147500D02*X19650D01*
X17400Y146750D02*X18150Y147500D01*
X22200Y146750D02*Y145250D01*
Y146750D02*X22950Y147500D01*
X24450D01*
X25200Y146750D01*
Y145250D01*
X24450Y144500D02*X25200Y145250D01*
X22950Y144500D02*X24450D01*
X22200Y145250D02*X22950Y144500D01*
X27000Y150500D02*Y145250D01*
X27750Y144500D01*
X0Y141250D02*X29250D01*
X41750Y150500D02*Y144500D01*
X44000Y150500D02*X44750Y149750D01*
Y145250D01*
X44000Y144500D02*X44750Y145250D01*
X41000Y144500D02*X44000D01*
X41000Y150500D02*X44000D01*
X46550Y149000D02*Y148250D01*
Y146750D02*Y144500D01*
X50300Y147500D02*X51050Y146750D01*
X48800Y147500D02*X50300D01*
X48050Y146750D02*X48800Y147500D01*
X48050Y146750D02*Y145250D01*
X48800Y144500D01*
X51050Y147500D02*Y145250D01*
X51800Y144500D01*
X48800D02*X50300D01*
X51050Y145250D01*
X54350Y146750D02*Y144500D01*
Y146750D02*X55100Y147500D01*
X55850D01*
X56600Y146750D01*
Y144500D01*
Y146750D02*X57350Y147500D01*
X58100D01*
X58850Y146750D01*
Y144500D01*
X53600Y147500D02*X54350Y146750D01*
X60650Y144500D02*X61400D01*
X65900Y145250D02*X66650Y144500D01*
X65900Y149750D02*X66650Y150500D01*
X65900Y149750D02*Y145250D01*
X68450Y150500D02*X69950D01*
X69200D02*Y144500D01*
X68450D02*X69950D01*
X72500Y146750D02*Y144500D01*
Y146750D02*X73250Y147500D01*
X74000D01*
X74750Y146750D01*
Y144500D01*
X71750Y147500D02*X72500Y146750D01*
X77300Y147500D02*X79550D01*
X76550Y146750D02*X77300Y147500D01*
X76550Y146750D02*Y145250D01*
X77300Y144500D01*
X79550D01*
X81350Y150500D02*Y144500D01*
Y146750D02*X82100Y147500D01*
X83600D01*
X84350Y146750D01*
Y144500D01*
X86150Y150500D02*X86900Y149750D01*
Y145250D01*
X86150Y144500D02*X86900Y145250D01*
X41000Y141250D02*X88700D01*
X95750Y144500D02*X98000D01*
X95000Y145250D02*X95750Y144500D01*
X95000Y149750D02*Y145250D01*
Y149750D02*X95750Y150500D01*
X98000D01*
X99800Y146750D02*Y145250D01*
Y146750D02*X100550Y147500D01*
X102050D01*
X102800Y146750D01*
Y145250D01*
X102050Y144500D02*X102800Y145250D01*
X100550Y144500D02*X102050D01*
X99800Y145250D02*X100550Y144500D01*
X104600Y147500D02*Y145250D01*
X105350Y144500D01*
X106850D01*
X107600Y145250D01*
Y147500D02*Y145250D01*
X110150Y146750D02*Y144500D01*
Y146750D02*X110900Y147500D01*
X111650D01*
X112400Y146750D01*
Y144500D01*
X109400Y147500D02*X110150Y146750D01*
X114950Y150500D02*Y145250D01*
X115700Y144500D01*
X114200Y148250D02*X115700D01*
X95000Y141250D02*X117200D01*
X130750Y150500D02*Y144500D01*
X130000Y150500D02*X133000D01*
X133750Y149750D01*
Y148250D01*
X133000Y147500D02*X133750Y148250D01*
X130750Y147500D02*X133000D01*
X135550Y150500D02*Y145250D01*
X136300Y144500D01*
X140050Y147500D02*X140800Y146750D01*
X138550Y147500D02*X140050D01*
X137800Y146750D02*X138550Y147500D01*
X137800Y146750D02*Y145250D01*
X138550Y144500D01*
X140800Y147500D02*Y145250D01*
X141550Y144500D01*
X138550D02*X140050D01*
X140800Y145250D01*
X144100Y150500D02*Y145250D01*
X144850Y144500D01*
X143350Y148250D02*X144850D01*
X147100Y144500D02*X149350D01*
X146350Y145250D02*X147100Y144500D01*
X146350Y146750D02*Y145250D01*
Y146750D02*X147100Y147500D01*
X148600D01*
X149350Y146750D01*
X146350Y146000D02*X149350D01*
Y146750D02*Y146000D01*
X154150Y150500D02*Y144500D01*
X153400D02*X154150Y145250D01*
X151900Y144500D02*X153400D01*
X151150Y145250D02*X151900Y144500D01*
X151150Y146750D02*Y145250D01*
Y146750D02*X151900Y147500D01*
X153400D01*
X154150Y146750D01*
X157450Y147500D02*Y146750D01*
Y145250D02*Y144500D01*
X155950Y149750D02*Y149000D01*
Y149750D02*X156700Y150500D01*
X158200D01*
X158950Y149750D01*
Y149000D01*
X157450Y147500D02*X158950Y149000D01*
X130000Y141250D02*X160750D01*
X0Y165500D02*X3000D01*
X1500D02*Y159500D01*
X4800Y165500D02*Y159500D01*
Y161750D02*X5550Y162500D01*
X7050D01*
X7800Y161750D01*
Y159500D01*
X10350D02*X12600D01*
X9600Y160250D02*X10350Y159500D01*
X9600Y161750D02*Y160250D01*
Y161750D02*X10350Y162500D01*
X11850D01*
X12600Y161750D01*
X9600Y161000D02*X12600D01*
Y161750D02*Y161000D01*
X15150Y161750D02*Y159500D01*
Y161750D02*X15900Y162500D01*
X17400D01*
X14400D02*X15150Y161750D01*
X19950Y159500D02*X22200D01*
X19200Y160250D02*X19950Y159500D01*
X19200Y161750D02*Y160250D01*
Y161750D02*X19950Y162500D01*
X21450D01*
X22200Y161750D01*
X19200Y161000D02*X22200D01*
Y161750D02*Y161000D01*
X28950Y162500D02*X29700Y161750D01*
X27450Y162500D02*X28950D01*
X26700Y161750D02*X27450Y162500D01*
X26700Y161750D02*Y160250D01*
X27450Y159500D01*
X29700Y162500D02*Y160250D01*
X30450Y159500D01*
X27450D02*X28950D01*
X29700Y160250D01*
X33000Y161750D02*Y159500D01*
Y161750D02*X33750Y162500D01*
X35250D01*
X32250D02*X33000Y161750D01*
X37800Y159500D02*X40050D01*
X37050Y160250D02*X37800Y159500D01*
X37050Y161750D02*Y160250D01*
Y161750D02*X37800Y162500D01*
X39300D01*
X40050Y161750D01*
X37050Y161000D02*X40050D01*
Y161750D02*Y161000D01*
X44550Y165500D02*X47550D01*
X44550D02*Y162500D01*
X45300Y163250D01*
X46800D01*
X47550Y162500D01*
Y160250D01*
X46800Y159500D02*X47550Y160250D01*
X45300Y159500D02*X46800D01*
X44550Y160250D02*X45300Y159500D01*
X55050Y165500D02*Y159500D01*
X54300D02*X55050Y160250D01*
X52800Y159500D02*X54300D01*
X52050Y160250D02*X52800Y159500D01*
X52050Y161750D02*Y160250D01*
Y161750D02*X52800Y162500D01*
X54300D01*
X55050Y161750D01*
X56850Y164000D02*Y163250D01*
Y161750D02*Y159500D01*
X59100Y164750D02*Y159500D01*
Y164750D02*X59850Y165500D01*
X60600D01*
X58350Y162500D02*X59850D01*
X62850Y164750D02*Y159500D01*
Y164750D02*X63600Y165500D01*
X64350D01*
X62100Y162500D02*X63600D01*
X66600Y159500D02*X68850D01*
X65850Y160250D02*X66600Y159500D01*
X65850Y161750D02*Y160250D01*
Y161750D02*X66600Y162500D01*
X68100D01*
X68850Y161750D01*
X65850Y161000D02*X68850D01*
Y161750D02*Y161000D01*
X71400Y161750D02*Y159500D01*
Y161750D02*X72150Y162500D01*
X73650D01*
X70650D02*X71400Y161750D01*
X76200Y159500D02*X78450D01*
X75450Y160250D02*X76200Y159500D01*
X75450Y161750D02*Y160250D01*
Y161750D02*X76200Y162500D01*
X77700D01*
X78450Y161750D01*
X75450Y161000D02*X78450D01*
Y161750D02*Y161000D01*
X81000Y161750D02*Y159500D01*
Y161750D02*X81750Y162500D01*
X82500D01*
X83250Y161750D01*
Y159500D01*
X80250Y162500D02*X81000Y161750D01*
X85800Y165500D02*Y160250D01*
X86550Y159500D01*
X85050Y163250D02*X86550D01*
X93750Y165500D02*Y159500D01*
X93000D02*X93750Y160250D01*
X91500Y159500D02*X93000D01*
X90750Y160250D02*X91500Y159500D01*
X90750Y161750D02*Y160250D01*
Y161750D02*X91500Y162500D01*
X93000D01*
X93750Y161750D01*
X96300D02*Y159500D01*
Y161750D02*X97050Y162500D01*
X98550D01*
X95550D02*X96300Y161750D01*
X100350Y164000D02*Y163250D01*
Y161750D02*Y159500D01*
X101850Y165500D02*Y160250D01*
X102600Y159500D01*
X104100Y165500D02*Y160250D01*
X104850Y159500D01*
X109800D02*X112050D01*
X112800Y160250D01*
X112050Y161000D02*X112800Y160250D01*
X109800Y161000D02*X112050D01*
X109050Y161750D02*X109800Y161000D01*
X109050Y161750D02*X109800Y162500D01*
X112050D01*
X112800Y161750D01*
X109050Y160250D02*X109800Y159500D01*
X114600Y164000D02*Y163250D01*
Y161750D02*Y159500D01*
X116100Y162500D02*X119100D01*
X116100Y159500D02*X119100Y162500D01*
X116100Y159500D02*X119100D01*
X121650D02*X123900D01*
X120900Y160250D02*X121650Y159500D01*
X120900Y161750D02*Y160250D01*
Y161750D02*X121650Y162500D01*
X123150D01*
X123900Y161750D01*
X120900Y161000D02*X123900D01*
Y161750D02*Y161000D01*
X126450Y159500D02*X128700D01*
X129450Y160250D01*
X128700Y161000D02*X129450Y160250D01*
X126450Y161000D02*X128700D01*
X125700Y161750D02*X126450Y161000D01*
X125700Y161750D02*X126450Y162500D01*
X128700D01*
X129450Y161750D01*
X125700Y160250D02*X126450Y159500D01*
X133950Y162500D02*Y160250D01*
X134700Y159500D01*
X136200D01*
X136950Y160250D01*
Y162500D02*Y160250D01*
X139500Y159500D02*X141750D01*
X142500Y160250D01*
X141750Y161000D02*X142500Y160250D01*
X139500Y161000D02*X141750D01*
X138750Y161750D02*X139500Y161000D01*
X138750Y161750D02*X139500Y162500D01*
X141750D01*
X142500Y161750D01*
X138750Y160250D02*X139500Y159500D01*
X145050D02*X147300D01*
X144300Y160250D02*X145050Y159500D01*
X144300Y161750D02*Y160250D01*
Y161750D02*X145050Y162500D01*
X146550D01*
X147300Y161750D01*
X144300Y161000D02*X147300D01*
Y161750D02*Y161000D01*
X152100Y165500D02*Y159500D01*
X151350D02*X152100Y160250D01*
X149850Y159500D02*X151350D01*
X149100Y160250D02*X149850Y159500D01*
X149100Y161750D02*Y160250D01*
Y161750D02*X149850Y162500D01*
X151350D01*
X152100Y161750D01*
X156600Y164000D02*Y163250D01*
Y161750D02*Y159500D01*
X158850Y161750D02*Y159500D01*
Y161750D02*X159600Y162500D01*
X160350D01*
X161100Y161750D01*
Y159500D01*
X158100Y162500D02*X158850Y161750D01*
X166350Y165500D02*Y160250D01*
X167100Y159500D01*
X165600Y163250D02*X167100D01*
X168600Y165500D02*Y159500D01*
Y161750D02*X169350Y162500D01*
X170850D01*
X171600Y161750D01*
Y159500D01*
X173400Y164000D02*Y163250D01*
Y161750D02*Y159500D01*
X175650D02*X177900D01*
X178650Y160250D01*
X177900Y161000D02*X178650Y160250D01*
X175650Y161000D02*X177900D01*
X174900Y161750D02*X175650Y161000D01*
X174900Y161750D02*X175650Y162500D01*
X177900D01*
X178650Y161750D01*
X174900Y160250D02*X175650Y159500D01*
X183150Y165500D02*Y160250D01*
X183900Y159500D01*
X187650Y162500D02*X188400Y161750D01*
X186150Y162500D02*X187650D01*
X185400Y161750D02*X186150Y162500D01*
X185400Y161750D02*Y160250D01*
X186150Y159500D01*
X188400Y162500D02*Y160250D01*
X189150Y159500D01*
X186150D02*X187650D01*
X188400Y160250D01*
X190950Y162500D02*Y160250D01*
X191700Y159500D01*
X193950Y162500D02*Y158000D01*
X193200Y157250D02*X193950Y158000D01*
X191700Y157250D02*X193200D01*
X190950Y158000D02*X191700Y157250D01*
Y159500D02*X193200D01*
X193950Y160250D01*
X195750Y161750D02*Y160250D01*
Y161750D02*X196500Y162500D01*
X198000D01*
X198750Y161750D01*
Y160250D01*
X198000Y159500D02*X198750Y160250D01*
X196500Y159500D02*X198000D01*
X195750Y160250D02*X196500Y159500D01*
X200550Y162500D02*Y160250D01*
X201300Y159500D01*
X202800D01*
X203550Y160250D01*
Y162500D02*Y160250D01*
X206100Y165500D02*Y160250D01*
X206850Y159500D01*
X205350Y163250D02*X206850D01*
X208350Y158000D02*X209850Y159500D01*
X215100D02*X216600D01*
X215850Y165500D02*Y159500D01*
X214350Y164000D02*X215850Y165500D01*
X218400Y160250D02*X219150Y159500D01*
X218400Y161750D02*Y160250D01*
Y161750D02*X219150Y162500D01*
X220650D01*
X221400Y161750D01*
Y160250D01*
X220650Y159500D02*X221400Y160250D01*
X219150Y159500D02*X220650D01*
X218400Y163250D02*X219150Y162500D01*
X218400Y164750D02*Y163250D01*
Y164750D02*X219150Y165500D01*
X220650D01*
X221400Y164750D01*
Y163250D01*
X220650Y162500D02*X221400Y163250D01*
X225900Y165500D02*Y159500D01*
Y161750D02*X226650Y162500D01*
X228150D01*
X228900Y161750D01*
Y159500D01*
X230700Y161750D02*Y160250D01*
Y161750D02*X231450Y162500D01*
X232950D01*
X233700Y161750D01*
Y160250D01*
X232950Y159500D02*X233700Y160250D01*
X231450Y159500D02*X232950D01*
X230700Y160250D02*X231450Y159500D01*
X235500Y165500D02*Y160250D01*
X236250Y159500D01*
X238500D02*X240750D01*
X237750Y160250D02*X238500Y159500D01*
X237750Y161750D02*Y160250D01*
Y161750D02*X238500Y162500D01*
X240000D01*
X240750Y161750D01*
X237750Y161000D02*X240750D01*
Y161750D02*Y161000D01*
X243300Y159500D02*X245550D01*
X246300Y160250D01*
X245550Y161000D02*X246300Y160250D01*
X243300Y161000D02*X245550D01*
X242550Y161750D02*X243300Y161000D01*
X242550Y161750D02*X243300Y162500D01*
X245550D01*
X246300Y161750D01*
X242550Y160250D02*X243300Y159500D01*
X251550Y165500D02*Y160250D01*
X252300Y159500D01*
X250800Y163250D02*X252300D01*
X253800Y161750D02*Y160250D01*
Y161750D02*X254550Y162500D01*
X256050D01*
X256800Y161750D01*
Y160250D01*
X256050Y159500D02*X256800Y160250D01*
X254550Y159500D02*X256050D01*
X253800Y160250D02*X254550Y159500D01*
X259350Y165500D02*Y160250D01*
X260100Y159500D01*
X258600Y163250D02*X260100D01*
X263850Y162500D02*X264600Y161750D01*
X262350Y162500D02*X263850D01*
X261600Y161750D02*X262350Y162500D01*
X261600Y161750D02*Y160250D01*
X262350Y159500D01*
X264600Y162500D02*Y160250D01*
X265350Y159500D01*
X262350D02*X263850D01*
X264600Y160250D01*
X267150Y165500D02*Y160250D01*
X267900Y159500D01*
G54D57*X0Y0D02*X190000D01*
Y62000D01*
X0D01*
Y0D01*
G54D56*X8675Y-9500D02*X11675D01*
X12425Y-8750D01*
Y-7250D02*Y-8750D01*
X11675Y-6500D02*X12425Y-7250D01*
X9425Y-6500D02*X11675D01*
X9425Y-3500D02*Y-9500D01*
X8675Y-3500D02*X11675D01*
X12425Y-4250D01*
Y-5750D01*
X11675Y-6500D02*X12425Y-5750D01*
X14225Y-7250D02*Y-8750D01*
Y-7250D02*X14975Y-6500D01*
X16475D01*
X17225Y-7250D01*
Y-8750D01*
X16475Y-9500D02*X17225Y-8750D01*
X14975Y-9500D02*X16475D01*
X14225Y-8750D02*X14975Y-9500D01*
X21275Y-6500D02*X22025Y-7250D01*
X19775Y-6500D02*X21275D01*
X19025Y-7250D02*X19775Y-6500D01*
X19025Y-7250D02*Y-8750D01*
X19775Y-9500D01*
X22025Y-6500D02*Y-8750D01*
X22775Y-9500D01*
X19775D02*X21275D01*
X22025Y-8750D01*
X25325Y-7250D02*Y-9500D01*
Y-7250D02*X26075Y-6500D01*
X27575D01*
X24575D02*X25325Y-7250D01*
X32375Y-3500D02*Y-9500D01*
X31625D02*X32375Y-8750D01*
X30125Y-9500D02*X31625D01*
X29375Y-8750D02*X30125Y-9500D01*
X29375Y-7250D02*Y-8750D01*
Y-7250D02*X30125Y-6500D01*
X31625D01*
X32375Y-7250D01*
X36875D02*Y-8750D01*
Y-7250D02*X37625Y-6500D01*
X39125D01*
X39875Y-7250D01*
Y-8750D01*
X39125Y-9500D02*X39875Y-8750D01*
X37625Y-9500D02*X39125D01*
X36875Y-8750D02*X37625Y-9500D01*
X41675Y-6500D02*Y-8750D01*
X42425Y-9500D01*
X43925D01*
X44675Y-8750D01*
Y-6500D02*Y-8750D01*
X47225Y-3500D02*Y-8750D01*
X47975Y-9500D01*
X46475Y-5750D02*X47975D01*
X49475Y-3500D02*Y-8750D01*
X50225Y-9500D01*
X51725Y-5000D02*Y-5750D01*
Y-7250D02*Y-9500D01*
X53975Y-7250D02*Y-9500D01*
Y-7250D02*X54725Y-6500D01*
X55475D01*
X56225Y-7250D01*
Y-9500D01*
X53225Y-6500D02*X53975Y-7250D01*
X58775Y-9500D02*X61025D01*
X58025Y-8750D02*X58775Y-9500D01*
X58025Y-7250D02*Y-8750D01*
Y-7250D02*X58775Y-6500D01*
X60275D01*
X61025Y-7250D01*
X58025Y-8000D02*X61025D01*
Y-7250D02*Y-8000D01*
X65525Y-5000D02*Y-5750D01*
Y-7250D02*Y-9500D01*
X67775D02*X70025D01*
X70775Y-8750D01*
X70025Y-8000D02*X70775Y-8750D01*
X67775Y-8000D02*X70025D01*
X67025Y-7250D02*X67775Y-8000D01*
X67025Y-7250D02*X67775Y-6500D01*
X70025D01*
X70775Y-7250D01*
X67025Y-8750D02*X67775Y-9500D01*
X76025Y-3500D02*Y-8750D01*
X76775Y-9500D01*
X75275Y-5750D02*X76775D01*
X78275Y-3500D02*Y-9500D01*
Y-7250D02*X79025Y-6500D01*
X80525D01*
X81275Y-7250D01*
Y-9500D01*
X83825D02*X86075D01*
X83075Y-8750D02*X83825Y-9500D01*
X83075Y-7250D02*Y-8750D01*
Y-7250D02*X83825Y-6500D01*
X85325D01*
X86075Y-7250D01*
X83075Y-8000D02*X86075D01*
Y-7250D02*Y-8000D01*
X91325Y-6500D02*X93575D01*
X90575Y-7250D02*X91325Y-6500D01*
X90575Y-7250D02*Y-8750D01*
X91325Y-9500D01*
X93575D01*
X96125D02*X98375D01*
X95375Y-8750D02*X96125Y-9500D01*
X95375Y-7250D02*Y-8750D01*
Y-7250D02*X96125Y-6500D01*
X97625D01*
X98375Y-7250D01*
X95375Y-8000D02*X98375D01*
Y-7250D02*Y-8000D01*
X100925Y-7250D02*Y-9500D01*
Y-7250D02*X101675Y-6500D01*
X102425D01*
X103175Y-7250D01*
Y-9500D01*
X100175Y-6500D02*X100925Y-7250D01*
X105725Y-3500D02*Y-8750D01*
X106475Y-9500D01*
X104975Y-5750D02*X106475D01*
X108725Y-9500D02*X110975D01*
X107975Y-8750D02*X108725Y-9500D01*
X107975Y-7250D02*Y-8750D01*
Y-7250D02*X108725Y-6500D01*
X110225D01*
X110975Y-7250D01*
X107975Y-8000D02*X110975D01*
Y-7250D02*Y-8000D01*
X113525Y-7250D02*Y-9500D01*
Y-7250D02*X114275Y-6500D01*
X115775D01*
X112775D02*X113525Y-7250D01*
X117575Y-3500D02*Y-8750D01*
X118325Y-9500D01*
X119825Y-5000D02*Y-5750D01*
Y-7250D02*Y-9500D01*
X122075Y-7250D02*Y-9500D01*
Y-7250D02*X122825Y-6500D01*
X123575D01*
X124325Y-7250D01*
Y-9500D01*
X121325Y-6500D02*X122075Y-7250D01*
X126875Y-9500D02*X129125D01*
X126125Y-8750D02*X126875Y-9500D01*
X126125Y-7250D02*Y-8750D01*
Y-7250D02*X126875Y-6500D01*
X128375D01*
X129125Y-7250D01*
X126125Y-8000D02*X129125D01*
Y-7250D02*Y-8000D01*
X133625Y-7250D02*Y-8750D01*
Y-7250D02*X134375Y-6500D01*
X135875D01*
X136625Y-7250D01*
Y-8750D01*
X135875Y-9500D02*X136625Y-8750D01*
X134375Y-9500D02*X135875D01*
X133625Y-8750D02*X134375Y-9500D01*
X139175Y-4250D02*Y-9500D01*
Y-4250D02*X139925Y-3500D01*
X140675D01*
X138425Y-6500D02*X139925D01*
X145625Y-3500D02*Y-8750D01*
X146375Y-9500D01*
X144875Y-5750D02*X146375D01*
X147875Y-3500D02*Y-9500D01*
Y-7250D02*X148625Y-6500D01*
X150125D01*
X150875Y-7250D01*
Y-9500D01*
X152675Y-5000D02*Y-5750D01*
Y-7250D02*Y-9500D01*
X154925D02*X157175D01*
X157925Y-8750D01*
X157175Y-8000D02*X157925Y-8750D01*
X154925Y-8000D02*X157175D01*
X154175Y-7250D02*X154925Y-8000D01*
X154175Y-7250D02*X154925Y-6500D01*
X157175D01*
X157925Y-7250D01*
X154175Y-8750D02*X154925Y-9500D01*
X163175Y-7250D02*Y-11750D01*
X162425Y-6500D02*X163175Y-7250D01*
X163925Y-6500D01*
X165425D01*
X166175Y-7250D01*
Y-8750D01*
X165425Y-9500D02*X166175Y-8750D01*
X163925Y-9500D02*X165425D01*
X163175Y-8750D02*X163925Y-9500D01*
X170225Y-6500D02*X170975Y-7250D01*
X168725Y-6500D02*X170225D01*
X167975Y-7250D02*X168725Y-6500D01*
X167975Y-7250D02*Y-8750D01*
X168725Y-9500D01*
X170975Y-6500D02*Y-8750D01*
X171725Y-9500D01*
X168725D02*X170225D01*
X170975Y-8750D01*
X174275Y-3500D02*Y-8750D01*
X175025Y-9500D01*
X173525Y-5750D02*X175025D01*
X176525Y-3500D02*Y-9500D01*
Y-7250D02*X177275Y-6500D01*
X178775D01*
X179525Y-7250D01*
Y-9500D01*
X200750Y90500D02*Y84500D01*
X203000Y90500D02*X203750Y89750D01*
Y85250D01*
X203000Y84500D02*X203750Y85250D01*
X200000Y84500D02*X203000D01*
X200000Y90500D02*X203000D01*
X207800Y87500D02*X208550Y86750D01*
X206300Y87500D02*X207800D01*
X205550Y86750D02*X206300Y87500D01*
X205550Y86750D02*Y85250D01*
X206300Y84500D01*
X208550Y87500D02*Y85250D01*
X209300Y84500D01*
X206300D02*X207800D01*
X208550Y85250D01*
X211850Y90500D02*Y85250D01*
X212600Y84500D01*
X211100Y88250D02*X212600D01*
X214850Y84500D02*X217100D01*
X214100Y85250D02*X214850Y84500D01*
X214100Y86750D02*Y85250D01*
Y86750D02*X214850Y87500D01*
X216350D01*
X217100Y86750D01*
X214100Y86000D02*X217100D01*
Y86750D02*Y86000D01*
X218900Y88250D02*X219650D01*
X218900Y86750D02*X219650D01*
X224150Y90500D02*Y84500D01*
Y90500D02*X227150D01*
X224150Y87500D02*X226400D01*
X229700Y86750D02*Y84500D01*
Y86750D02*X230450Y87500D01*
X231950D01*
X228950D02*X229700Y86750D01*
X233750Y89000D02*Y88250D01*
Y86750D02*Y84500D01*
X237950Y89750D02*X238700Y90500D01*
X240950D01*
X241700Y89750D01*
Y88250D01*
X237950Y84500D02*X241700Y88250D01*
X237950Y84500D02*X241700D01*
X243500D02*X247250Y88250D01*
Y90500D02*Y88250D01*
X243500Y90500D02*X247250D01*
X251750D02*Y84500D01*
Y90500D02*X254750D01*
X251750Y87500D02*X254000D01*
X257300Y84500D02*X259550D01*
X256550Y85250D02*X257300Y84500D01*
X256550Y86750D02*Y85250D01*
Y86750D02*X257300Y87500D01*
X258800D01*
X259550Y86750D01*
X256550Y86000D02*X259550D01*
Y86750D02*Y86000D01*
X261350Y90500D02*Y84500D01*
Y85250D02*X262100Y84500D01*
X263600D01*
X264350Y85250D01*
Y86750D02*Y85250D01*
X263600Y87500D02*X264350Y86750D01*
X262100Y87500D02*X263600D01*
X261350Y86750D02*X262100Y87500D01*
X268850Y89750D02*X269600Y90500D01*
X271850D01*
X272600Y89750D01*
Y88250D01*
X268850Y84500D02*X272600Y88250D01*
X268850Y84500D02*X272600D01*
X274400Y85250D02*X275150Y84500D01*
X274400Y89750D02*Y85250D01*
Y89750D02*X275150Y90500D01*
X276650D01*
X277400Y89750D01*
Y85250D01*
X276650Y84500D02*X277400Y85250D01*
X275150Y84500D02*X276650D01*
X274400Y86000D02*X277400Y89000D01*
X279950Y84500D02*X281450D01*
X280700Y90500D02*Y84500D01*
X279200Y89000D02*X280700Y90500D01*
X283250D02*X286250D01*
X283250D02*Y87500D01*
X284000Y88250D01*
X285500D01*
X286250Y87500D01*
Y85250D01*
X285500Y84500D02*X286250Y85250D01*
X284000Y84500D02*X285500D01*
X283250Y85250D02*X284000Y84500D01*
X290750Y85250D02*X291500Y84500D01*
X290750Y89750D02*Y85250D01*
Y89750D02*X291500Y90500D01*
X293000D01*
X293750Y89750D01*
Y85250D01*
X293000Y84500D02*X293750Y85250D01*
X291500Y84500D02*X293000D01*
X290750Y86000D02*X293750Y89000D01*
X295550Y84500D02*X298550Y87500D01*
Y89750D02*Y87500D01*
X297800Y90500D02*X298550Y89750D01*
X296300Y90500D02*X297800D01*
X295550Y89750D02*X296300Y90500D01*
X295550Y89750D02*Y88250D01*
X296300Y87500D01*
X298550D01*
X300350Y88250D02*X301100D01*
X300350Y86750D02*X301100D01*
X302900Y89750D02*X303650Y90500D01*
X305150D01*
X305900Y89750D01*
Y85250D01*
X305150Y84500D02*X305900Y85250D01*
X303650Y84500D02*X305150D01*
X302900Y85250D02*X303650Y84500D01*
Y87500D02*X305900D01*
X307700Y89750D02*X308450Y90500D01*
X310700D01*
X311450Y89750D01*
Y88250D01*
X307700Y84500D02*X311450Y88250D01*
X307700Y84500D02*X311450D01*
X313250Y88250D02*X314000D01*
X313250Y86750D02*X314000D01*
X315800Y89750D02*X316550Y90500D01*
X318800D01*
X319550Y89750D01*
Y88250D01*
X315800Y84500D02*X319550Y88250D01*
X315800Y84500D02*X319550D01*
X322100D02*X323600D01*
X322850Y90500D02*Y84500D01*
X321350Y89000D02*X322850Y90500D01*
X328850D02*Y84500D01*
X328100Y90500D02*X331100D01*
X331850Y89750D01*
Y88250D01*
X331100Y87500D02*X331850Y88250D01*
X328850Y87500D02*X331100D01*
X333650Y90500D02*Y84500D01*
Y90500D02*X335900Y88250D01*
X338150Y90500D01*
Y84500D01*
X345650Y90500D02*X346400Y89750D01*
X343400Y90500D02*X345650D01*
X342650Y89750D02*X343400Y90500D01*
X342650Y89750D02*Y85250D01*
X343400Y84500D01*
X345650D01*
X346400Y85250D01*
Y86750D02*Y85250D01*
X345650Y87500D02*X346400Y86750D01*
X344150Y87500D02*X345650D01*
X348200Y90500D02*Y84500D01*
Y90500D02*X350450Y88250D01*
X352700Y90500D01*
Y84500D01*
X354500Y90500D02*X357500D01*
X356000D02*Y84500D01*
X362000Y90500D02*Y85250D01*
X362750Y84500D01*
X364250D01*
X365000Y85250D01*
Y90500D02*Y85250D01*
X366800Y90500D02*X369800D01*
X368300D02*Y84500D01*
X372350D02*X374600D01*
X371600Y85250D02*X372350Y84500D01*
X371600Y89750D02*Y85250D01*
Y89750D02*X372350Y90500D01*
X374600D01*
X200000Y104750D02*Y99500D01*
Y104750D02*X200750Y105500D01*
X203000D01*
X203750Y104750D01*
Y99500D01*
X200000Y102500D02*X203750D01*
X205550D02*Y100250D01*
X206300Y99500D01*
X207800D01*
X208550Y100250D01*
Y102500D02*Y100250D01*
X211100Y105500D02*Y100250D01*
X211850Y99500D01*
X210350Y103250D02*X211850D01*
X213350Y105500D02*Y99500D01*
Y101750D02*X214100Y102500D01*
X215600D01*
X216350Y101750D01*
Y99500D01*
X218150Y101750D02*Y100250D01*
Y101750D02*X218900Y102500D01*
X220400D01*
X221150Y101750D01*
Y100250D01*
X220400Y99500D02*X221150Y100250D01*
X218900Y99500D02*X220400D01*
X218150Y100250D02*X218900Y99500D01*
X223700Y101750D02*Y99500D01*
Y101750D02*X224450Y102500D01*
X225950D01*
X222950D02*X223700Y101750D01*
X227750Y103250D02*X228500D01*
X227750Y101750D02*X228500D01*
X233000Y105500D02*Y99500D01*
Y105500D02*Y104750D01*
X236750Y101000D01*
Y105500D02*Y99500D01*
X240800Y102500D02*X241550Y101750D01*
X239300Y102500D02*X240800D01*
X238550Y101750D02*X239300Y102500D01*
X238550Y101750D02*Y100250D01*
X239300Y99500D01*
X241550Y102500D02*Y100250D01*
X242300Y99500D01*
X239300D02*X240800D01*
X241550Y100250D01*
X244850Y105500D02*Y100250D01*
X245600Y99500D01*
X244100Y103250D02*X245600D01*
X247100Y105500D02*Y99500D01*
Y101750D02*X247850Y102500D01*
X249350D01*
X250100Y101750D01*
Y99500D01*
X254150Y102500D02*X254900Y101750D01*
X252650Y102500D02*X254150D01*
X251900Y101750D02*X252650Y102500D01*
X251900Y101750D02*Y100250D01*
X252650Y99500D01*
X254900Y102500D02*Y100250D01*
X255650Y99500D01*
X252650D02*X254150D01*
X254900Y100250D01*
X258200Y101750D02*Y99500D01*
Y101750D02*X258950Y102500D01*
X259700D01*
X260450Y101750D01*
Y99500D01*
X257450Y102500D02*X258200Y101750D01*
X265700Y105500D02*Y99500D01*
X267950Y105500D02*X268700Y104750D01*
Y100250D01*
X267950Y99500D02*X268700Y100250D01*
X264950Y99500D02*X267950D01*
X264950Y105500D02*X267950D01*
X270500Y99500D02*X271250D01*
X275750Y105500D02*Y99500D01*
X279500Y105500D02*Y99500D01*
X275750Y102500D02*X279500D01*
X281300Y101750D02*Y100250D01*
Y101750D02*X282050Y102500D01*
X283550D01*
X284300Y101750D01*
Y100250D01*
X283550Y99500D02*X284300Y100250D01*
X282050Y99500D02*X283550D01*
X281300Y100250D02*X282050Y99500D01*
X286100Y105500D02*Y100250D01*
X286850Y99500D01*
X289100Y101750D02*Y99500D01*
Y101750D02*X289850Y102500D01*
X290600D01*
X291350Y101750D01*
Y99500D01*
Y101750D02*X292100Y102500D01*
X292850D01*
X293600Y101750D01*
Y99500D01*
X288350Y102500D02*X289100Y101750D01*
X296150Y99500D02*X298400D01*
X295400Y100250D02*X296150Y99500D01*
X295400Y101750D02*Y100250D01*
Y101750D02*X296150Y102500D01*
X297650D01*
X298400Y101750D01*
X295400Y101000D02*X298400D01*
Y101750D02*Y101000D01*
X300950Y99500D02*X303200D01*
X303950Y100250D01*
X303200Y101000D02*X303950Y100250D01*
X300950Y101000D02*X303200D01*
X300200Y101750D02*X300950Y101000D01*
X300200Y101750D02*X300950Y102500D01*
X303200D01*
X303950Y101750D01*
X300200Y100250D02*X300950Y99500D01*
X200000Y120500D02*X203000D01*
X201500D02*Y114500D01*
X204800Y119000D02*Y118250D01*
Y116750D02*Y114500D01*
X207050Y120500D02*Y115250D01*
X207800Y114500D01*
X206300Y118250D02*X207800D01*
X209300Y120500D02*Y115250D01*
X210050Y114500D01*
X212300D02*X214550D01*
X211550Y115250D02*X212300Y114500D01*
X211550Y116750D02*Y115250D01*
Y116750D02*X212300Y117500D01*
X213800D01*
X214550Y116750D01*
X211550Y116000D02*X214550D01*
Y116750D02*Y116000D01*
X216350Y118250D02*X217100D01*
X216350Y116750D02*X217100D01*
X221600Y115250D02*X222350Y114500D01*
X221600Y119750D02*X222350Y120500D01*
X221600Y119750D02*Y115250D01*
X224150Y117500D02*Y115250D01*
X224900Y114500D01*
X226400D01*
X227150Y115250D01*
Y117500D02*Y115250D01*
X229700Y116750D02*Y114500D01*
Y116750D02*X230450Y117500D01*
X231200D01*
X231950Y116750D01*
Y114500D01*
X228950Y117500D02*X229700Y116750D01*
X233750Y120500D02*Y114500D01*
Y116750D02*X236000Y114500D01*
X233750Y116750D02*X235250Y118250D01*
X238550Y116750D02*Y114500D01*
Y116750D02*X239300Y117500D01*
X240050D01*
X240800Y116750D01*
Y114500D01*
X237800Y117500D02*X238550Y116750D01*
X242600D02*Y115250D01*
Y116750D02*X243350Y117500D01*
X244850D01*
X245600Y116750D01*
Y115250D01*
X244850Y114500D02*X245600Y115250D01*
X243350Y114500D02*X244850D01*
X242600Y115250D02*X243350Y114500D01*
X247400Y117500D02*Y115250D01*
X248150Y114500D01*
X248900D01*
X249650Y115250D01*
Y117500D02*Y115250D01*
X250400Y114500D01*
X251150D01*
X251900Y115250D01*
Y117500D02*Y115250D01*
X254450Y116750D02*Y114500D01*
Y116750D02*X255200Y117500D01*
X255950D01*
X256700Y116750D01*
Y114500D01*
X253700Y117500D02*X254450Y116750D01*
X258500Y120500D02*X259250Y119750D01*
Y115250D01*
X258500Y114500D02*X259250Y115250D01*
X263750Y117500D02*X266750D01*
X271250Y120500D02*Y114500D01*
Y120500D02*X274250D01*
X271250Y117500D02*X273500D01*
X278300D02*X279050Y116750D01*
X276800Y117500D02*X278300D01*
X276050Y116750D02*X276800Y117500D01*
X276050Y116750D02*Y115250D01*
X276800Y114500D01*
X279050Y117500D02*Y115250D01*
X279800Y114500D01*
X276800D02*X278300D01*
X279050Y115250D01*
X281600Y120500D02*Y114500D01*
Y115250D02*X282350Y114500D01*
X283850D01*
X284600Y115250D01*
Y116750D02*Y115250D01*
X283850Y117500D02*X284600Y116750D01*
X282350Y117500D02*X283850D01*
X281600Y116750D02*X282350Y117500D01*
X287150Y116750D02*Y114500D01*
Y116750D02*X287900Y117500D01*
X289400D01*
X286400D02*X287150Y116750D01*
X291200Y119000D02*Y118250D01*
Y116750D02*Y114500D01*
X293450Y117500D02*X295700D01*
X292700Y116750D02*X293450Y117500D01*
X292700Y116750D02*Y115250D01*
X293450Y114500D01*
X295700D01*
X299750Y117500D02*X300500Y116750D01*
X298250Y117500D02*X299750D01*
X297500Y116750D02*X298250Y117500D01*
X297500Y116750D02*Y115250D01*
X298250Y114500D01*
X300500Y117500D02*Y115250D01*
X301250Y114500D01*
X298250D02*X299750D01*
X300500Y115250D01*
X303800Y120500D02*Y115250D01*
X304550Y114500D01*
X303050Y118250D02*X304550D01*
X306050Y119000D02*Y118250D01*
Y116750D02*Y114500D01*
X307550Y116750D02*Y115250D01*
Y116750D02*X308300Y117500D01*
X309800D01*
X310550Y116750D01*
Y115250D01*
X309800Y114500D02*X310550Y115250D01*
X308300Y114500D02*X309800D01*
X307550Y115250D02*X308300Y114500D01*
X313100Y116750D02*Y114500D01*
Y116750D02*X313850Y117500D01*
X314600D01*
X315350Y116750D01*
Y114500D01*
X312350Y117500D02*X313100Y116750D01*
X320600Y120500D02*Y114500D01*
X322850Y120500D02*X323600Y119750D01*
Y115250D01*
X322850Y114500D02*X323600Y115250D01*
X319850Y114500D02*X322850D01*
X319850Y120500D02*X322850D01*
X326150Y116750D02*Y114500D01*
Y116750D02*X326900Y117500D01*
X328400D01*
X325400D02*X326150Y116750D01*
X332450Y117500D02*X333200Y116750D01*
X330950Y117500D02*X332450D01*
X330200Y116750D02*X330950Y117500D01*
X330200Y116750D02*Y115250D01*
X330950Y114500D01*
X333200Y117500D02*Y115250D01*
X333950Y114500D01*
X330950D02*X332450D01*
X333200Y115250D01*
X335750Y117500D02*Y115250D01*
X336500Y114500D01*
X337250D01*
X338000Y115250D01*
Y117500D02*Y115250D01*
X338750Y114500D01*
X339500D01*
X340250Y115250D01*
Y117500D02*Y115250D01*
X342050Y119000D02*Y118250D01*
Y116750D02*Y114500D01*
X344300Y116750D02*Y114500D01*
Y116750D02*X345050Y117500D01*
X345800D01*
X346550Y116750D01*
Y114500D01*
X343550Y117500D02*X344300Y116750D01*
X350600Y117500D02*X351350Y116750D01*
X349100Y117500D02*X350600D01*
X348350Y116750D02*X349100Y117500D01*
X348350Y116750D02*Y115250D01*
X349100Y114500D01*
X350600D01*
X351350Y115250D01*
X348350Y113000D02*X349100Y112250D01*
X350600D01*
X351350Y113000D01*
Y117500D02*Y113000D01*
M02*
