G04 start of page 2 for group 0 idx 0 *
G04 Title: (unknown), component *
G04 Creator: pcb 4.0.2 *
G04 CreationDate: Mon Feb 22 17:57:16 2021 UTC *
G04 For: ndholmes *
G04 Format: Gerber/RS-274X *
G04 PCB-Dimensions (mil): 2000.00 2000.00 *
G04 PCB-Coordinate-Origin: lower left *
%MOIN*%
%FSLAX25Y25*%
%LNTOP*%
%ADD16C,0.0480*%
%ADD15C,0.1285*%
%ADD14C,0.0800*%
%ADD13C,0.0001*%
%ADD12C,0.2937*%
%ADD11C,0.0400*%
G54D11*X100000Y13500D02*X97000Y10500D01*
X75000D01*
X70000Y22000D02*Y15500D01*
X75000Y10500D01*
X110000Y46500D02*Y22000D01*
X86000Y46500D02*Y26000D01*
X90000Y22000D01*
X92500Y132000D02*X107000D01*
X100000D02*Y116000D01*
Y119000D02*Y13500D01*
Y110500D02*X94500D01*
X79000Y46500D02*Y113500D01*
X87000Y121500D01*
X158500Y75500D02*X112500Y121500D01*
X140500Y76000D02*X106000Y110500D01*
X130000Y22000D02*Y34500D01*
X133500Y38000D01*
Y46500D01*
X117000D02*Y34000D01*
X120000Y31000D01*
Y13500D01*
X123500Y10000D01*
X153500D01*
X158500Y15000D01*
Y75500D01*
X140500Y46500D02*Y76000D01*
G54D12*X160000Y121000D03*
X40000D03*
G54D13*G36*
X106000Y26000D02*Y18000D01*
X114000D01*
Y26000D01*
X106000D01*
G37*
G54D14*X130000Y22000D03*
G54D13*G36*
X66000Y26000D02*Y18000D01*
X74000D01*
Y26000D01*
X66000D01*
G37*
G54D14*X90000Y22000D03*
G54D13*G36*
X83726Y126259D02*X81166Y121827D01*
X90370Y116513D01*
X92929Y120945D01*
X83726Y126259D01*
G37*
G36*
X88602Y49452D02*X83484D01*
Y43548D01*
X88602D01*
Y49452D01*
G37*
G36*
X81516D02*X76398D01*
Y43548D01*
X81516D01*
Y49452D01*
G37*
G36*
X112516D02*X107398D01*
Y43548D01*
X112516D01*
Y49452D01*
G37*
G36*
X119602D02*X114484D01*
Y43548D01*
X119602D01*
Y49452D01*
G37*
G36*
X136016D02*X130898D01*
Y43548D01*
X136016D01*
Y49452D01*
G37*
G36*
X143102D02*X137984D01*
Y43548D01*
X143102D01*
Y49452D01*
G37*
G36*
X89630Y136487D02*X87071Y132055D01*
X96274Y126741D01*
X98834Y131173D01*
X89630Y136487D01*
G37*
G36*
X118334Y121827D02*X115774Y126259D01*
X106571Y120945D01*
X109130Y116513D01*
X118334Y121827D01*
G37*
G36*
X112429Y132055D02*X109870Y136487D01*
X100666Y131173D01*
X103226Y126741D01*
X112429Y132055D01*
G37*
G36*
X108464Y115814D02*X103346D01*
Y105186D01*
X108464D01*
Y115814D01*
G37*
G36*
X96654D02*X91536D01*
Y105186D01*
X96654D01*
Y115814D01*
G37*
G54D15*G54D16*M02*
