G04 start of page 3 for group 1 idx 1 *
G04 Title: (unknown), solder *
G04 Creator: pcb 4.0.2 *
G04 CreationDate: Mon Feb 22 17:57:16 2021 UTC *
G04 For: ndholmes *
G04 Format: Gerber/RS-274X *
G04 PCB-Dimensions (mil): 2000.00 2000.00 *
G04 PCB-Coordinate-Origin: lower left *
%MOIN*%
%FSLAX25Y25*%
%LNBOTTOM*%
%ADD21C,0.0480*%
%ADD20C,0.1285*%
%ADD19C,0.0800*%
%ADD18C,0.2937*%
%ADD17C,0.0001*%
G54D17*G36*
X159976Y197500D02*X197500D01*
Y2500D01*
X159976D01*
Y105270D01*
X160000Y105268D01*
X162461Y105461D01*
X164862Y106038D01*
X167142Y106982D01*
X169247Y108272D01*
X171124Y109876D01*
X172728Y111753D01*
X174018Y113858D01*
X174962Y116138D01*
X175539Y118539D01*
X175684Y121000D01*
X175539Y123461D01*
X174962Y125862D01*
X174018Y128142D01*
X172728Y130247D01*
X171124Y132124D01*
X169247Y133728D01*
X167142Y135018D01*
X164862Y135962D01*
X162461Y136539D01*
X160000Y136732D01*
X159976Y136730D01*
Y197500D01*
G37*
G36*
X129992D02*X159976D01*
Y136730D01*
X157539Y136539D01*
X155138Y135962D01*
X152858Y135018D01*
X150753Y133728D01*
X148876Y132124D01*
X147272Y130247D01*
X145982Y128142D01*
X145038Y125862D01*
X144461Y123461D01*
X144268Y121000D01*
X144461Y118539D01*
X145038Y116138D01*
X145982Y113858D01*
X147272Y111753D01*
X148876Y109876D01*
X150753Y108272D01*
X152858Y106982D01*
X155138Y106038D01*
X157539Y105461D01*
X159976Y105270D01*
Y2500D01*
X129992D01*
Y16484D01*
X130000Y16483D01*
X130863Y16551D01*
X131705Y16753D01*
X132505Y17084D01*
X133243Y17537D01*
X133901Y18099D01*
X134463Y18757D01*
X134916Y19495D01*
X135247Y20295D01*
X135449Y21137D01*
X135500Y22000D01*
X135449Y22863D01*
X135247Y23705D01*
X134916Y24505D01*
X134463Y25243D01*
X133901Y25901D01*
X133243Y26463D01*
X132505Y26916D01*
X131705Y27247D01*
X130863Y27449D01*
X130000Y27517D01*
X129992Y27516D01*
Y197500D01*
G37*
G36*
X110000D02*X129992D01*
Y27516D01*
X129137Y27449D01*
X128295Y27247D01*
X127495Y26916D01*
X126757Y26463D01*
X126099Y25901D01*
X125537Y25243D01*
X125084Y24505D01*
X124753Y23705D01*
X124551Y22863D01*
X124483Y22000D01*
X124551Y21137D01*
X124753Y20295D01*
X125084Y19495D01*
X125537Y18757D01*
X126099Y18099D01*
X126757Y17537D01*
X127495Y17084D01*
X128295Y16753D01*
X129137Y16551D01*
X129992Y16484D01*
Y2500D01*
X110000D01*
Y16507D01*
X114235Y16514D01*
X114465Y16569D01*
X114683Y16659D01*
X114884Y16783D01*
X115064Y16936D01*
X115217Y17116D01*
X115341Y17317D01*
X115431Y17535D01*
X115486Y17765D01*
X115500Y18000D01*
X115486Y26235D01*
X115431Y26465D01*
X115341Y26683D01*
X115217Y26884D01*
X115064Y27064D01*
X114884Y27217D01*
X114683Y27341D01*
X114465Y27431D01*
X114235Y27486D01*
X114000Y27500D01*
X110000Y27493D01*
Y197500D01*
G37*
G36*
X89992D02*X110000D01*
Y27493D01*
X105765Y27486D01*
X105535Y27431D01*
X105317Y27341D01*
X105116Y27217D01*
X104936Y27064D01*
X104783Y26884D01*
X104659Y26683D01*
X104569Y26465D01*
X104514Y26235D01*
X104500Y26000D01*
X104514Y17765D01*
X104569Y17535D01*
X104659Y17317D01*
X104783Y17116D01*
X104936Y16936D01*
X105116Y16783D01*
X105317Y16659D01*
X105535Y16569D01*
X105765Y16514D01*
X106000Y16500D01*
X110000Y16507D01*
Y2500D01*
X89992D01*
Y16484D01*
X90000Y16483D01*
X90863Y16551D01*
X91705Y16753D01*
X92505Y17084D01*
X93243Y17537D01*
X93901Y18099D01*
X94463Y18757D01*
X94916Y19495D01*
X95247Y20295D01*
X95449Y21137D01*
X95500Y22000D01*
X95449Y22863D01*
X95247Y23705D01*
X94916Y24505D01*
X94463Y25243D01*
X93901Y25901D01*
X93243Y26463D01*
X92505Y26916D01*
X91705Y27247D01*
X90863Y27449D01*
X90000Y27517D01*
X89992Y27516D01*
Y197500D01*
G37*
G36*
X70000D02*X89992D01*
Y27516D01*
X89137Y27449D01*
X88295Y27247D01*
X87495Y26916D01*
X86757Y26463D01*
X86099Y25901D01*
X85537Y25243D01*
X85084Y24505D01*
X84753Y23705D01*
X84551Y22863D01*
X84483Y22000D01*
X84551Y21137D01*
X84753Y20295D01*
X85084Y19495D01*
X85537Y18757D01*
X86099Y18099D01*
X86757Y17537D01*
X87495Y17084D01*
X88295Y16753D01*
X89137Y16551D01*
X89992Y16484D01*
Y2500D01*
X70000D01*
Y16507D01*
X74235Y16514D01*
X74465Y16569D01*
X74683Y16659D01*
X74884Y16783D01*
X75064Y16936D01*
X75217Y17116D01*
X75341Y17317D01*
X75431Y17535D01*
X75486Y17765D01*
X75500Y18000D01*
X75486Y26235D01*
X75431Y26465D01*
X75341Y26683D01*
X75217Y26884D01*
X75064Y27064D01*
X74884Y27217D01*
X74683Y27341D01*
X74465Y27431D01*
X74235Y27486D01*
X74000Y27500D01*
X70000Y27493D01*
Y197500D01*
G37*
G36*
X39976D02*X70000D01*
Y27493D01*
X65765Y27486D01*
X65535Y27431D01*
X65317Y27341D01*
X65116Y27217D01*
X64936Y27064D01*
X64783Y26884D01*
X64659Y26683D01*
X64569Y26465D01*
X64514Y26235D01*
X64500Y26000D01*
X64514Y17765D01*
X64569Y17535D01*
X64659Y17317D01*
X64783Y17116D01*
X64936Y16936D01*
X65116Y16783D01*
X65317Y16659D01*
X65535Y16569D01*
X65765Y16514D01*
X66000Y16500D01*
X70000Y16507D01*
Y2500D01*
X39976D01*
Y105270D01*
X40000Y105268D01*
X42461Y105461D01*
X44862Y106038D01*
X47142Y106982D01*
X49247Y108272D01*
X51124Y109876D01*
X52728Y111753D01*
X54018Y113858D01*
X54962Y116138D01*
X55539Y118539D01*
X55684Y121000D01*
X55539Y123461D01*
X54962Y125862D01*
X54018Y128142D01*
X52728Y130247D01*
X51124Y132124D01*
X49247Y133728D01*
X47142Y135018D01*
X44862Y135962D01*
X42461Y136539D01*
X40000Y136732D01*
X39976Y136730D01*
Y197500D01*
G37*
G36*
X2500D02*X39976D01*
Y136730D01*
X37539Y136539D01*
X35138Y135962D01*
X32858Y135018D01*
X30753Y133728D01*
X28876Y132124D01*
X27272Y130247D01*
X25982Y128142D01*
X25038Y125862D01*
X24461Y123461D01*
X24268Y121000D01*
X24461Y118539D01*
X25038Y116138D01*
X25982Y113858D01*
X27272Y111753D01*
X28876Y109876D01*
X30753Y108272D01*
X32858Y106982D01*
X35138Y106038D01*
X37539Y105461D01*
X39976Y105270D01*
Y2500D01*
X2500D01*
Y197500D01*
G37*
G54D18*X160000Y121000D03*
X40000D03*
G54D17*G36*
X106000Y26000D02*Y18000D01*
X114000D01*
Y26000D01*
X106000D01*
G37*
G54D19*X130000Y22000D03*
G54D17*G36*
X66000Y26000D02*Y18000D01*
X74000D01*
Y26000D01*
X66000D01*
G37*
G54D19*X90000Y22000D03*
G54D20*G54D21*M02*
