G04 start of page 8 for group -4079 idx -4079 *
G04 Title: (unknown), topsilk *
G04 Creator: pcb 4.0.2 *
G04 CreationDate: Mon Feb 22 17:57:16 2021 UTC *
G04 For: ndholmes *
G04 Format: Gerber/RS-274X *
G04 PCB-Dimensions (mil): 2000.00 2000.00 *
G04 PCB-Coordinate-Origin: lower left *
%MOIN*%
%FSLAX25Y25*%
%LNTOPSILK*%
%ADD31C,0.0100*%
G54D31*X500Y199500D02*X199500D01*
Y500D01*
X500D01*
Y199500D01*
X99000Y122000D02*X101000Y120000D01*
X99000D02*X101000Y122000D01*
X99000Y121000D02*X101000D01*
X100000Y122000D02*Y120000D01*
X99000Y135000D02*X101000D01*
X100000Y136000D02*Y134000D01*
X93000Y102000D02*X95000D01*
X94000Y103000D02*Y101000D01*
X82107Y43745D02*X82893D01*
X82107Y49255D02*X82893D01*
X113107D02*X113893D01*
X113107Y43745D02*X113893D01*
X136607Y49255D02*X137393D01*
X136607Y43745D02*X137393D01*
X100000Y9200D02*X140000D01*
X100000Y39200D02*X140000D01*
X100000Y34800D02*X140000D01*
X100000Y39200D02*Y9200D01*
X140000Y39200D02*Y9200D01*
X60000D02*X100000D01*
X60000Y39200D02*X100000D01*
X60000Y34800D02*X100000D01*
X60000Y39200D02*Y9200D01*
X100000Y39200D02*Y9200D01*
X84414Y127453D02*X86382Y130861D01*
X93618Y122139D02*X95586Y125547D01*
X105882Y122139D02*X103914Y125547D01*
X115086Y127453D02*X113118Y130861D01*
X98032Y105186D02*X101968D01*
X98032Y115814D02*X101968D01*
X91000Y48010D02*X92980D01*
X93475Y47515D01*
Y46525D01*
X92980Y46030D02*X93475Y46525D01*
X91495Y46030D02*X92980D01*
X91495Y48010D02*Y44050D01*
Y46030D02*X93475Y44050D01*
X95158D02*X96148D01*
X95653Y48010D02*Y44050D01*
X94663Y47020D02*X95653Y48010D01*
X52500Y38000D02*X54000D01*
Y34500D01*
X53500Y34000D02*X54000Y34500D01*
X53000Y34000D02*X53500D01*
X52500Y34500D02*X53000Y34000D01*
X55700D02*X56700D01*
X56200Y38000D02*Y34000D01*
X55200Y37000D02*X56200Y38000D01*
X121500Y47510D02*X123480D01*
X123975Y47015D01*
Y46025D01*
X123480Y45530D02*X123975Y46025D01*
X121995Y45530D02*X123480D01*
X121995Y47510D02*Y43550D01*
Y45530D02*X123975Y43550D01*
X125163Y47015D02*X125658Y47510D01*
X127143D01*
X127638Y47015D01*
Y46025D01*
X125163Y43550D02*X127638Y46025D01*
X125163Y43550D02*X127638D01*
X145500Y48010D02*X147480D01*
X147975Y47515D01*
Y46525D01*
X147480Y46030D02*X147975Y46525D01*
X145995Y46030D02*X147480D01*
X145995Y48010D02*Y44050D01*
Y46030D02*X147975Y44050D01*
X149163Y47515D02*X149658Y48010D01*
X150648D01*
X151143Y47515D01*
Y44545D01*
X150648Y44050D02*X151143Y44545D01*
X149658Y44050D02*X150648D01*
X149163Y44545D02*X149658Y44050D01*
Y46030D02*X151143D01*
X142500Y38000D02*X144000D01*
Y34500D01*
X143500Y34000D02*X144000Y34500D01*
X143000Y34000D02*X143500D01*
X142500Y34500D02*X143000Y34000D01*
X145200Y37500D02*X145700Y38000D01*
X147200D01*
X147700Y37500D01*
Y36500D01*
X145200Y34000D02*X147700Y36500D01*
X145200Y34000D02*X147700D01*
X79000Y138500D02*Y134500D01*
X80500Y138500D02*X81000Y138000D01*
Y135000D01*
X80500Y134500D02*X81000Y135000D01*
X78500Y134500D02*X80500D01*
X78500Y138500D02*X80500D01*
X82700Y134500D02*X83700D01*
X83200Y138500D02*Y134500D01*
X82200Y137500D02*X83200Y138500D01*
X117500Y137000D02*Y133000D01*
X119000Y137000D02*X119500Y136500D01*
Y133500D01*
X119000Y133000D02*X119500Y133500D01*
X117000Y133000D02*X119000D01*
X117000Y137000D02*X119000D01*
X120700Y136500D02*X121200Y137000D01*
X122700D01*
X123200Y136500D01*
Y135500D01*
X120700Y133000D02*X123200Y135500D01*
X120700Y133000D02*X123200D01*
X112000Y112500D02*Y108500D01*
X113500Y112500D02*X114000Y112000D01*
Y109000D01*
X113500Y108500D02*X114000Y109000D01*
X111500Y108500D02*X113500D01*
X111500Y112500D02*X113500D01*
X115200Y112000D02*X115700Y112500D01*
X116700D01*
X117200Y112000D01*
Y109000D01*
X116700Y108500D02*X117200Y109000D01*
X115700Y108500D02*X116700D01*
X115200Y109000D02*X115700Y108500D01*
Y110500D02*X117200D01*
M02*
